<?xml version="1.0" encoding="UTF-8"?>
<svg id="Layer_2" data-name="Layer 2" xmlns="http://www.w3.org/2000/svg" xmlns:xlink="http://www.w3.org/1999/xlink" viewBox="0 0 1635.42 1595.89">
  <defs>
    <style>
      .cls-1 {
        fill: url(#linear-gradient);
      }
    </style>
    <linearGradient id="linear-gradient" x1="719.23" y1="68.36" x2="915.91" y2="1497.57" gradientUnits="userSpaceOnUse">
      <stop offset=".01" stop-color="#38dfed"/>
      <stop offset="1" stop-color="#121574"/>
    </linearGradient>
  </defs>
  <path class="cls-1" d="M1498.43,729.89c-35.17-46.67-80.71-81.85-119.86-106.31,21.26-78.65,14.8-152.3-20.42-208.49-19.12-30.51-45.4-53.73-78.1-69.03-8.94-4.18-18.24-7.69-27.87-10.55,0-.01,0-.02,0-.03,0-12.25-9.93-22.17-22.17-22.17-9.36,0-17.34,5.8-20.6,14-14.51-1.38-29.59-1.52-45.22-.38-26.13,1.9-49.83,5.55-71.56,10.49-7.27-33.3-19.12-69.16-39.34-107.26,5.3-4.05,8.73-10.42,8.73-17.61,0-12.25-9.93-22.17-22.17-22.17s-22.17,9.93-22.17,22.17,9.93,22.17,22.17,22.17c2.84,0,5.54-.55,8.04-1.53,19.86,37.48,31.52,72.8,38.69,105.64-14.06,3.41-27.28,7.36-39.78,11.75-2.11-9.42-4.61-18.75-7.65-27.92-14.85-44.79-47.05-94.83-86.14-133.88-32.72-32.69-85.28-72.85-149.81-78.57-2.2-.2-4.4-.32-6.59-.42-1.45-10.85-10.71-19.22-21.95-19.22-12.25,0-22.17,9.93-22.17,22.17,0,.63.04,1.25.09,1.86-52.8,13.71-100.91,54.57-142.29,104.85-10.21-1.23-64.42-7.06-122.77.01-2.13-10.02-11.02-17.53-21.68-17.53-12.25,0-22.17,9.93-22.17,22.17s9.93,22.17,22.17,22.17,21.3-9.11,22.09-20.63c52.45-6.4,101.62-2.22,117.73-.49-9.41,11.73-18.45,23.92-27.12,36.36-99.33-11.36-190.51,57.45-243.77,126.89-2.88,2.63-5.73,5.35-8.54,8.11-18.33,12.64-32.83,25.93-43.59,37.29-3.13,3.31-6.18,6.69-9.15,10.14-5.35,3.97-10.47,8.02-15.37,12.16-11.77,7.61-22.74,15.85-32.81,24.67-.4.25-.81.48-1.21.73-8.24,5.13-16.04,10.57-23.38,16.3-30.45,17.34-56.83,40.05-76.73,66.15-3.09-1.64-6.61-2.57-10.35-2.57-12.25,0-22.17,9.93-22.17,22.17,0,7.67,3.89,14.42,9.81,18.4-15.95,36.27-20.6,79.28-13.01,123.92,9.65,56.77,38.47,110.3,81.16,150.71,20.83,19.72,43.92,36.76,67.06,51.3-4.32,13.23-8.16,27.05-11.32,41.4-15.6,70.73-10.73,131.06,14.48,179.32,22.2,42.49,60.01,74.1,109.35,91.43,13.58,4.77,27.89,7.88,42.63,9.63.38,11.91,10.13,21.46,22.14,21.46s20.98-8.78,22.06-20.01c28.92-1.27,58.34-6.46,86.24-13.77,12.39,45.01,29.54,82.52,40.44,103.96-5.46,4.04-9.01,10.5-9.01,17.81,0,12.25,9.93,22.17,22.17,22.17s22.17-9.93,22.17-22.17-9.93-22.17-22.17-22.17c-2.72,0-5.31.51-7.72,1.41-10.75-21.16-27.66-58.17-39.9-102.62,14.19-3.89,27.92-8.3,40.95-12.98,24.04,87.92,80.31,172.86,145.56,218.76,49.72,34.97,106.03,42.98,136.35,44.58,1.45,10.84,10.71,19.22,21.95,19.22,12.25,0,22.17-9.93,22.17-22.17s-9.93-22.17-22.17-22.17c-11.15,0-20.35,8.24-21.91,18.96-29.57-1.57-84.4-9.4-132.83-43.47-64.27-45.21-119.7-129.05-143.29-215.82,13.71-5.08,26.54-10.42,38.19-15.72,5.4,25.37,13.12,50.06,24.89,73.31,47.99,94.73,127.37,158.26,212.36,169.94,6.73.92,13.28,1.37,19.7,1.37,52.48,0,95.3-30.12,136.15-77.46,8.3,1.36,42.45,6.48,85.23,6.48,16.43,0,34.13-.78,52.13-2.8,2.65,9.27,11.18,16.06,21.3,16.06,12.25,0,22.17-9.93,22.17-22.17s-9.93-22.17-22.17-22.17-22.17,9.93-22.17,22.17h0c-58.83,6.57-114.47-.5-131.79-3.11,10.08-12.04,20.06-25.1,30.05-39,44.3,9.56,91.01,2.16,135.25-21.48,5.55-2.97,11.04-6.21,16.45-9.66l.02.03c.72-.48,1.41-.95,2.11-1.42,6.69-4.36,13.27-9.06,19.69-14.11,27.88-21.42,42.92-39.96,59.84-60.79,10.06-12.39,20.46-25.21,34.67-40.12,30.54-32.05,68.56-57.65,99.1-78.22,13.75-9.26,25.62-17.25,35.14-24.64,18.45-14.32,38.44-34.65,51.61-48.77,3.54,2.4,7.82,3.81,12.42,3.81,12.25,0,22.17-9.93,22.17-22.17,0-5.84-2.27-11.13-5.96-15.09,12.58-20.26,23.97-52.54,26.72-92.26,3.01-43.53-3.51-108.84-51.66-172.74ZM1164.65,333.1c14.91-1.09,29.37-.93,43.29.39-.06.66-.1,1.32-.1,1.99,0,12.25,9.93,22.17,22.17,22.17,10.01,0,18.46-6.64,21.22-15.75,42.98,13.04,78.28,39.16,101.67,76.48,34.03,54.29,40.41,125.51,20.17,201.81-2.65-1.62-5.28-3.19-7.86-4.71,8.98-41.67,9.85-81.31,2.34-116.85-12-56.82-45.26-99.6-96.18-123.7-48.78-23.1-107.44-28.12-174.4-14.97-.92-5.46-1.93-11-3.08-16.61,21.4-4.81,44.79-8.36,70.75-10.25ZM1501.3,988.61c-9.4,2.57-16.31,11.15-16.31,21.36,0,1.77.23,3.48.62,5.13-6.65,9.96-18.04,24.91-35.42,41.42,17.79-22.52,30.82-50.81,36.78-81.57,13.52-69.78-9.53-142.52-64.91-204.82-25.02-28.15-50.61-48.14-75.91-62.74,5.58-11.09,10.63-22.18,15.17-33.21,57.29,33.89,120.78,95.11,142.86,175.86,17.23,63,5.19,114.65-2.88,138.58ZM254.81,938.89c3.44,1.98,6.87,3.9,10.28,5.76-1.24,5.64-2.37,11.34-3.36,17.13-11.08,65.12,1.17,124.69,34.5,167.74,30.18,38.98,76.35,62.95,130.01,67.51,10.76.91,21.25,1.34,31.51,1.34,19.2,0,37.57-1.5,55.31-4.1.73,5.5,1.6,10.96,2.62,16.37-35.48,7.53-72.56,10.54-110.07,5.36-56.7-7.83-101.88-34.22-130.65-76.32-32.8-48-41.75-112.59-25.2-181.86,1.53-6.4,3.22-12.71,5.04-18.93ZM137.98,590.32c12.84-34.73,35.57-62.64,62.39-84.39-15.37,17.89-27.58,37.47-36.17,58.38-20.43,49.71-19.12,104.46,3.78,158.32,26.67,62.73,62.97,100.29,103.46,124.59-5.65,10.39-11.21,21.49-16.52,33.25-15.72-9.6-30.16-20.15-42.25-31.68-78.82-75.12-106.73-171.74-74.68-258.47ZM270.77,947.72c4.39,2.34,8.74,4.59,13.04,6.76-1.22,10.26-1.9,20.71-1.9,31.32,0,57.86,17.01,103.69,50.55,136.22,35,33.93,86.85,51.71,150.47,51.71,3.58,0,7.21-.06,10.87-.17,5.77-.18,11.39-.51,16.95-.92.45,5.21.96,10.37,1.55,15.48-26.85,3.94-55.15,5.33-85.53,2.75-51.92-4.41-96.53-27.54-125.64-65.13-32.25-41.66-44.07-99.52-33.29-162.91.87-5.09,1.85-10.12,2.92-15.1ZM218.53,495.55c.93-.46,1.86-.92,2.8-1.36-13.93,18.05-24.36,37.35-31.21,57.84-18.37,54.9-6.74,105.39,6.24,138.07,28,70.48,81.13,116.03,93.46,125.92-5.06,7.94-10.22,16.52-15.34,25.69-39.48-23.79-74.84-60.46-100.8-121.5-22.24-52.31-23.54-105.4-3.75-153.55,10.71-26.05,27.22-50.03,48.61-71.11ZM318.68,422.48c.28-.15.56-.31.84-.46-.77,1.35-1.52,2.7-2.26,4.05-.33.13-.67.26-1,.39.8-1.33,1.6-2.66,2.42-3.98ZM537.63,326.37c-3.83,6.65-7.54,13.27-11.13,19.82-1.06,1.94-2.11,3.88-3.15,5.81-67.01-9-120.7,3.98-161.72,23.87.8-1.11,1.62-2.21,2.44-3.3,43.5-31.81,101.05-54.74,173.55-46.2ZM840.34,215.09c76.99,54.17,101.06,108.23,119.35,172.43.26,1.56.51,3.15.76,4.75-10.08,6.16-19.73,12.45-29.08,18.74-11.84-43.61-28.59-85.06-58.38-119.02-39.27-44.75-84.19-73.76-129.9-83.89-45.58-10.1-90.52-1.7-133.88,24.94,42.96-38.75,136.51-84.52,231.11-17.95ZM1341.94,602.53c-4.04-2.13-7.99-4.15-11.84-6.07,2.38-40.9-5.73-77.82-24.15-107.55-26.21-42.31-71.02-68.98-133.2-79.27-24.46-4.05-47.64-4.91-69.97-3.44-.52-5.77-1.12-11.64-1.8-17.62,9.67-1.05,19.65-1.7,29.99-1.89,83.76-1.57,146.69,23.87,181.96,73.59,26.37,37.17,36.13,86.88,29.01,142.26ZM1190.26,1228.61c-29.56,5.93-58.58,6.07-85.89,2.04,5.32-9.1,10.28-18.01,14.89-26.67,13.88,2.21,29.13,3.43,45.91,3.43,6.38,0,12.99-.18,19.81-.54,39.96-2.12,76.98-15.26,107.36-30.6-1.5,2.91-3.05,5.82-4.67,8.71-23.21,17.45-55.54,35.22-97.42,43.62ZM289.7,957.41c5.06,2.48,10.03,4.83,14.88,7.06-1.17,41.38,7.58,77.74,25.89,106.58,25.86,40.75,69.58,66.58,129.94,76.78,15.82,2.67,31.97,3.84,48.13,3.84.21,0,.43,0,.64,0,.34,4.98.68,9.91,1.07,14.8-5.45.4-10.97.73-16.63.9-3.6.11-7.15.17-10.68.17-61.97,0-112.35-17.18-146.16-49.96-32.3-31.31-48.67-75.65-48.67-131.77,0-9.58.57-19.05,1.6-28.38ZM324.6,795.82c8.05-11.7,15.71-21.94,22.48-30.53,1.05.84,2.1,1.67,3.15,2.48-6.8,8.9-14.4,19.47-22.25,31.53-1.15-1.13-2.28-2.29-3.39-3.48ZM293.19,810.8c-12.72-10.28-63.95-54.69-91.08-122.98-15.27-38.44-35.34-121.58,31.67-199.16,3.49-1.45,6.99-2.82,10.5-4.11-8.84,14.88-16.23,30.41-21.93,46.28-11.84,32.99-15.3,64.81-9.74,89.6,13.51,60.26,40.43,98.66,56.82,117.51-.48,1.81-.75,3.69-.75,5.65,0,12.25,9.93,22.17,22.17,22.17,1.91,0,3.75-.27,5.52-.72,3.99,8.16,8.42,15.5,13.24,22.12-1.12,1.52-2.24,3.05-3.36,4.61-4.18,5.81-8.56,12.16-13.05,19.02ZM302.06,762.68c6.54-3.86,10.94-10.95,10.94-19.09,0-12.25-9.93-22.17-22.17-22.17-7.79,0-14.62,4.02-18.58,10.1-16.03-19.19-41.04-56.33-53.61-112.44-7.58-33.81,2.93-87.08,34.89-137.77,3.48-1.14,6.96-2.22,10.43-3.2-1.29,2.28-2.57,4.56-3.81,6.87-25.5,47.56-23.62,93.96-17.55,124.51,6.57,33.07,18.99,54.62,19.54,55.56,23.42,38.97,47.98,67.99,72.98,90.16-6.57,7.57-13.94,16.55-21.69,26.81-4.1-5.85-7.9-12.27-11.36-19.34ZM321.4,431.12c1.98-.75,3.94-1.46,5.9-2.15-1.59,4.44-3.05,8.88-4.37,13.32-2.67.53-5.34,1.09-8.02,1.71,2.01-4.3,4.17-8.59,6.49-12.87ZM329.94,416.52c.92-.46,1.84-.9,2.77-1.35-.89,2.1-1.76,4.2-2.59,6.31-1.34.44-2.68.89-4.03,1.35,1.24-2.11,2.53-4.21,3.85-6.32ZM570.03,287.84c-.08.06-.28.21-.57.45-.78.44-1.53.89-2.25,1.33,9.98-12.13,26.23-21.46,45.85-26.76,1.37,7.2,7.69,12.65,15.28,12.65,8.6,0,15.57-6.97,15.57-15.57,0-.61-.04-1.21-.11-1.8,50.76-2.48,103.75,19.01,145.71,59.18,5.85,5.6,11.34,11.5,16.51,17.64-5.02,4.06-8.23,10.27-8.23,17.23,0,12.25,9.93,22.17,22.17,22.17,4.2,0,8.12-1.19,11.46-3.22,14.98,25.46,26.51,53.57,36.2,82.89-9.98,6.29-20.14,12.27-30.68,17.76-1.36-4-2.8-8.03-4.34-12.11-4.26-11.32-9.52-22.71-15.64-33.98-.24-7.8-4.5-14.57-10.79-18.33-12.15-19.18-26.65-37.67-42.87-54.43-31.82-32.87-67.35-56.76-102.76-69.1-42.72-14.89-73.06-5.63-90.44,4.09l-.07-.09ZM1036.23,423.76c2.08,6.16,7.89,10.6,14.74,10.6.18,0,.35-.02.53-.03.04.53.08,1.07.12,1.6-11.39,1.86-22.89,4.14-34.48,6.74-.51-4.29-1.06-8.61-1.64-12.94,6.88-2.15,13.78-4.15,20.73-5.98ZM1324.05,593.48c-6.1-2.96-11.9-5.65-17.33-8.07-.68-9.36-2.05-18.42-4.08-27.15,4.59-2.6,7.69-7.52,7.69-13.18,0-8.37-6.78-15.15-15.15-15.15-.67,0-1.33.06-1.97.14-2.89-6.48-6.22-12.71-10-18.68-25.23-39.78-70.03-66.47-129.54-77.17-15.78-2.84-32.14-3.86-48.94-3.49-.43-5.98-.89-12.1-1.41-18.34,21.88-1.44,44.55-.6,68.42,3.35,60.34,9.98,103.72,35.69,128.95,76.42,17.34,28.01,25.18,62.74,23.36,101.31ZM802.84,1188.67c-3.75,0-7.29.94-10.39,2.59-3.32-7.15-6.29-14.38-8.87-21.66-4.47-12.65-8.19-27.19-11.59-42.9,5.51-1.58,11.24-3.02,17.22-4.33,5.6,14.6,11.85,29.57,19.13,44.37,31.97,65.08,94.21,120.9,154.87,138.91,10.16,3.02,19.83,4.28,28.9,4.28,26.33,0,47.57-10.61,60.89-19.66-15.85,15.67-60.26,53.36-110.59,41.36-45.17-10.77-94.34-51.29-128.17-101.8,6.44-3.88,10.76-10.92,10.76-18.98,0-12.25-9.93-22.17-22.17-22.17ZM310.59,967.19c5.9,2.64,11.61,5.09,17.07,7.35,2.25,25.52,8.67,48.28,19.28,68,20.26,37.64,55.39,63.49,104.43,76.81,17.45,4.74,36.44,7.48,56.17,8.49.43,5.85.83,11.69,1.21,17.51,0,.04,0,.08,0,.12-15.95,0-31.82-1.13-47.32-3.75-100.66-17.01-153.16-78.43-150.86-174.54ZM316.04,917.95c4.13,1.73,8.26,3.39,12.38,5.02-1.66,15.67-2.08,30.58-1.26,44.67-5.24-2.2-10.7-4.57-16.33-7.11.52-10.51,1.67-21.41,3.47-32.71.53-3.33,1.12-6.62,1.75-9.87ZM272.39,475.88c4.54-1.12,9.05-2.09,13.53-2.94-4.77,11.83-8.73,23.67-11.77,35.41-10.86,41.9-9.61,80.46,3.63,111.52,18.92,44.4,43.72,78.34,76.99,105.03-1.69,3.13-2.65,6.71-2.65,10.51,0,.4.04.79.06,1.19-3.6,3.69-7.98,8.34-12.94,13.92-24.61-21.8-48.76-50.32-71.78-88.62-.12-.21-12.49-21.72-18.84-53.83-5.83-29.5-7.61-74.3,16.98-120.16,1.85-3.44,4.11-7.5,6.78-12.03ZM573.67,292.72c16.11-8.93,44.28-17.16,84.83-3.03,51.09,17.8,103.12,62.11,138.28,114.63-.65-.06-1.3-.1-1.96-.1-11.93,0-21.64,9.44-22.13,21.25-25.06-40.67-54.93-70-94.22-93.56-45.9-27.52-87.19-37.67-114.36-29.18,5.57-6.79,9.51-9.85,9.62-9.93l-.06-.08ZM826.8,461.86c1.62,4.3,3.14,8.56,4.56,12.78-8.92,4.45-18.12,8.54-27.72,12.18-1.06-2.5-2.07-4.87-3.03-7.06-5.21-12.01-10.6-23.23-16.21-33.79,3.11,1.66,6.65,2.6,10.41,2.6,9.03,0,16.79-5.41,20.24-13.16,4.44,8.73,8.39,17.56,11.74,26.45ZM853.25,469.94c.03.41.07.86.1,1.32-4.67,2.32-9.44,4.59-14.33,6.8-.03-.1-.06-.19-.09-.29,4.84-2.52,9.61-5.13,14.32-7.83ZM1295.19,560.23c.52,0,1.03-.03,1.53-.08,1.66,7.24,2.85,14.72,3.55,22.42-6.96-3.01-13.15-5.52-18.4-7.57-.2-.76-.39-1.53-.59-2.29.77-1.82,1.2-3.81,1.2-5.91,0-5.74-3.19-10.74-7.9-13.3-5.12-11.9-11.81-22.97-20.06-33.09-31.36-38.47-82.29-60.98-148.07-65.67-.35-4.71-.68-9.49-1.02-14.35-.08-1.14-.16-2.3-.24-3.46,16.3-.34,32.15.66,47.4,3.4,57.76,10.39,101.12,36.11,125.4,74.39,3.53,5.57,6.64,11.38,9.37,17.42-4.37,2.66-7.31,7.45-7.31,12.94,0,8.37,6.78,15.15,15.15,15.15ZM1297.42,639.24c-3.8-1.27-7.61-2.5-11.43-3.71,1.8-18.74.97-36.54-2.42-53.16,5.05,2.03,10.84,4.45,17.2,7.26.83,15.73-.29,32.32-3.35,49.61ZM1286.63,681.35c-2.92-.93-5.83-1.82-8.72-2.66,1.94-7.36,3.68-14.97,5.17-22.85.9-4.73,1.63-9.41,2.21-14.04,3.66,1.17,7.32,2.36,10.97,3.58-1.15,5.69-2.5,11.45-4.06,17.27-1.72,6.4-3.59,12.63-5.57,18.69ZM1366.53,1103.75c-2.46.73-4.96,1.41-7.48,2.06,13.1-29.04,22.85-69.25,14.02-118.55-12.65-70.58-57.04-116.71-92.06-142.99-.17-.13-.34-.25-.5-.37-3.09-4.77-7.95-8.27-13.66-9.58-1.47-.97-2.96-1.93-4.45-2.88,6.11-6.86,12.13-13.99,18.04-21.42,55.96,34.69,104.05,91.93,114.38,167.1,7.76,56.42-10.44,99-27.07,124.78-.4.63-.81,1.24-1.22,1.85ZM1307.17,1159.33c.24-.56.5-1.13.74-1.69.25-.1.5-.19.74-.29-.5.68-1,1.34-1.48,1.98ZM1312.02,1149.28c-.29.12-.6.25-.9.37,1.47-3.81,2.83-7.64,4.12-11.47,2.19-.54,4.38-1.11,6.57-1.7-2.23,4.16-4.49,7.98-6.71,11.46-1.02.45-2.04.9-3.09,1.34ZM1082.64,1248.86c-.52.82-1.31,2.04-2.34,3.62,2.49-6.29,4.64-12.54,6.45-18.76,1.48.32,2.97.63,4.46.92-2.8,4.7-5.66,9.45-8.58,14.22ZM762.57,1077.78c-2.36-12.97-4.84-26.55-7.61-40.5,1.08-.12,2.13-.33,3.16-.6,5.34,12.9,10.45,27.62,15.94,43.48,2.74,7.92,5.6,16.16,8.64,24.6-5,.63-9.91,1.32-14.74,2.06-1.82-9.44-3.59-19.15-5.39-29.03ZM605.9,1101.22c-4.82-55.03-9.42-107.41-30.68-149.07,5.01-4.07,8.21-10.26,8.21-17.22,0-12.25-9.93-22.17-22.17-22.17s-22.17,9.93-22.17,22.17,9.93,22.17,22.17,22.17c3.06,0,5.98-.62,8.64-1.75,20.55,40.58,25.08,92.19,29.83,146.4.37,4.19.74,8.39,1.11,12.59-12.68,2.52-25.42,4.43-38.03,5.7-2.7-55.46-7.28-116.85-49.69-173.62,3.62-3.95,5.85-9.19,5.85-14.97,0-12.25-9.93-22.17-22.17-22.17-4.92,0-9.44,1.62-13.12,4.33-16.65-7.4-47.93-19.36-96.54-30.65-13.67-3.17-27.4-6.61-41.03-10.69,5.15-14.77,11.5-28.58,18.25-41.12,26.59,12.32,56.43,18.15,85.81,23.9,37.14,7.26,75.55,14.76,106.32,35.33,47.46,31.73,69.87,67.88,82.93,106.57-5.82,4-9.64,10.69-9.64,18.29,0,5,1.68,9.61,4.47,13.32-3.53,24.68-4.11,51.12-1.86,78.18-2.33.67-4.68,1.32-7.06,1.95-6.09,1.62-12.23,3.08-18.39,4.4-.35-3.96-.7-7.92-1.05-11.87ZM397.73,1022.72c12.25,0,22.17-9.93,22.17-22.17s-9.93-22.17-22.17-22.17c-7.22,0-13.61,3.47-17.66,8.81-9.77-3.07-26.25-8.63-46.54-16.9-1.09-15.28-.61-30.49.84-45,39.97,15.33,77.81,25.7,100.76,31.35-2.19,3.44-3.48,7.51-3.48,11.89,0,12.25,9.93,22.17,22.17,22.17,4.1,0,7.92-1.13,11.21-3.07,31.09,43.51,38.39,89.06,42.02,133.93-19.4-1.02-37.7-3.73-54.05-8.18-83.91-22.8-112.97-79.28-118.86-136.2,18.32,7.37,33.36,12.49,42.88,15.52-.93,2.44-1.45,5.08-1.45,7.84,0,12.25,9.93,22.17,22.17,22.17ZM469.9,983.77c3.77-3.97,6.1-9.33,6.1-15.24,0-12.25-9.93-22.17-22.17-22.17-5.35,0-10.25,1.89-14.08,5.04-22.61-5.47-62.58-16.2-104.68-32.44,1.7-14.14,4.91-27.8,9.08-40.78,13.81,4.13,27.74,7.62,41.6,10.84,45.76,10.62,76.26,22.02,93.2,29.36-2.7,3.67-4.31,8.19-4.31,13.1,0,12.25,9.93,22.17,22.17,22.17,4.24,0,8.19-1.21,11.56-3.28,41.24,55.07,45.53,113.42,48.28,170.27-14.77,1.26-29.32,1.66-43.36,1.19-3.68-46.11-11.03-92.99-43.39-138.06ZM645.08,994.18c-13.39-39.44-36.4-76.35-85.14-108.93-31.8-21.26-70.83-28.89-108.57-36.26-29.69-5.8-58.64-11.46-84.09-23.11,7.02-12.48,14.33-23.57,21.09-32.94,36.03,20,71.98,30.49,105.87,40.38,49.37,14.4,92.01,26.84,122.13,65.87,19.61,25.41,35.25,60.35,48.65,98.18-3.67-2.68-8.17-4.28-13.06-4.28-2.4,0-4.71.39-6.88,1.1ZM639.85,1033.81c3.01,1.96,6.51,3.21,10.29,3.52,2.31,10.92,4.33,21.98,6.36,33.15,1.52,8.36,3.1,17.01,4.8,25.55.07.36.15.73.22,1.09-7.31,2.78-14.94,5.37-22.83,7.77-1.99-24.64-1.65-48.68,1.15-71.08ZM667.38,1094.82c-1.69-8.5-3.26-17.12-4.78-25.45-1.99-10.91-3.96-21.71-6.19-32.39,8.04-1.64,14.49-7.63,16.8-15.4,6.67,20.61,12.8,41.64,18.66,62.1-7.65,3.94-15.83,7.68-24.48,11.16,0,0,0-.01,0-.02ZM621.27,895.4c-31.35-40.63-74.89-53.32-125.3-68.03-33.26-9.7-68.54-19.99-103.87-39.51,5.8-7.75,11.02-14.09,15.07-18.77,4.48-.67,8.51-2.66,11.7-5.59,29.83,13.73,62.34,24.68,96.12,36.03,7.6,2.55,15.31,5.14,23.12,7.81,110.92,37.84,137.24,132.3,165.1,232.29l.91,3.26c2.85,10.22,5.67,19.78,8.44,28.73-4.72,3.12-9.76,6.15-15.09,9.07-19.27-67.23-41.54-140.41-76.19-185.31ZM395.94,715.77c.5.35.99.71,1.49,1.05,3.78,2.61,7.6,5.06,11.45,7.39-.5.37-.99.74-1.48,1.11-1.15-.18-2.32-.31-3.52-.31-3.24,0-6.31.71-9.09,1.96-.94-2.28-2.25-4.35-3.86-6.18,1.54-1.6,3.21-3.28,5-5.03ZM542.67,566.91c-3.19-24.87-12.08-44.83-23.55-60.78,3.09-3.81,4.95-8.66,4.95-13.96,0-11.42-8.64-20.82-19.74-22.03.21-28.4,5.09-54.13,11.76-76.16,2.2.54,4.38,1.11,6.55,1.71-.94,29.26,13.23,54.08,29.33,82.27,22.65,39.64,50.21,87.97,43.11,167.02-12.85-2.3-25.96-3.44-39.42-3.19-3.67.07-7.28.22-10.84.45,2.18-21.86,1.47-47-2.17-75.33ZM529.44,359.14c-2.06,7.28-3.91,15.21-5.45,23.83-.38,2.14-.68,4.24-.9,6.33-1.69-.46-3.39-.89-5.1-1.31,3.47-10.62,7.31-20.29,11.18-28.89.09.01.19.03.28.04ZM1252.18,566.8c0,8.37,6.78,15.15,15.15,15.15,3.15,0,6.08-.96,8.5-2.61.26.1.53.2.79.31,3.9,16.76,5.02,34.85,3.32,53.98-4.68-1.46-9.35-2.9-14-4.33-36.16-11.11-70.99-21.82-98.88-40.64,1.32-2.84,2.08-6,2.08-9.34,0-12.25-9.93-22.17-22.17-22.17-3.98,0-7.71,1.06-10.94,2.9-1.89-2.43-3.71-4.95-5.44-7.57-16.33-24.7-20.81-55.78-23.66-91.48,62.93,4.83,113.15,26.96,142.79,63.31,6.88,8.44,12.64,17.59,17.25,27.35-8.19.2-14.78,6.89-14.78,15.13ZM1125.42,555.9c1.82,2.75,3.73,5.38,5.71,7.93-3.91,4-6.33,9.46-6.33,15.5,0,12.25,9.93,22.17,22.17,22.17,6.73,0,12.74-3.01,16.81-7.74,29.15,19.58,65.14,30.65,100.34,41.46,5.03,1.55,10.1,3.1,15.17,4.69-.58,4.87-1.34,9.79-2.29,14.78-1.46,7.69-3.16,15.12-5.05,22.31-19.56-5.39-38.35-9.02-55.89-12.41-42.16-8.14-78.58-15.17-105.02-41.04-41.37-40.47-47.1-99.74-51.51-163.06,8.71-.42,17.52-.59,26.43-.45,4.98.08,9.88.27,14.72.55,2.91,36.94,7.45,69.17,24.74,95.31ZM1106.71,627.98c27.78,27.17,65.04,34.36,108.18,42.69,17.88,3.45,36.44,7.04,55.46,12.22-4.03,14.21-8.81,27.38-14.04,39.51-1.85-.49-3.67-1-5.54-1.48-26.3-6.64-50.23-10.79-71.34-14.45-31.67-5.49-58.13-10.1-80.18-20.92,2.3-3.5,3.65-7.67,3.65-12.17,0-12.25-9.93-22.17-22.17-22.17-6.39,0-12.13,2.72-16.17,7.04-8.16-9.91-15.43-22.19-21.85-37.68-12.85-31-16.32-73.58-20-118.67-.99-12.16-2.03-24.8-3.28-37.71,11.16-1.49,22.46-2.64,33.91-3.36,4.49,64.56,10.32,125.05,53.36,167.14ZM1016.55,502.41c1.92,23.57,3.8,46.45,6.99,67.48-9.5-24.25-22.99-60.7-35.08-100.69,8.22-1.54,16.5-2.94,24.86-4.16,1.21,12.62,2.23,25.11,3.23,37.36ZM1030.21,602.7c1.94,7.14,4.16,13.92,6.78,20.24,7,16.9,14.91,30.16,23.83,40.75-1.43,2.93-2.26,6.22-2.26,9.7,0,12.25,9.93,22.17,22.17,22.17,5.36,0,10.27-1.9,14.1-5.06,22.94,11.57,50.5,16.35,83.54,22.08,21,3.64,44.81,7.77,70.88,14.35,1.53.39,3.01.8,4.52,1.2-4.24,9.32-8.71,17.98-13.28,25.99-5.36-1.2-10.8-2.3-16.37-3.24-19.88-3.36-38.4-5.73-54.74-7.82-74.83-9.58-119.99-15.36-168.42-92.7-2.09-3.34-4.08-6.75-6-10.21,7.8-3.43,13.25-11.22,13.25-20.29,0-12.25-9.93-22.17-22.17-22.17-.77,0-1.52.04-2.27.12-3.69-20.56-7.99-50.44-8.19-78.95-.12-16.17-.54-31.83-1.26-46.84,2.67-.56,5.35-1.1,8.03-1.63,21.39,70.92,47.26,130.91,47.87,132.32ZM1244.23,827.95c-6.28,7.38-12.38,14.27-18.18,20.63-3.02-1.64-6.02-3.19-8.99-4.68,7.29-5.94,14.38-12.34,21.26-19.15,1.97,1.04,3.94,2.1,5.9,3.19ZM1342.94,1123.27c-3.05,1.11-6.13,2.17-9.22,3.17,1.38-3.14,2.74-6.46,4.06-9.96,3.37-.52,6.71-1.13,10.01-1.78-1.52,2.85-3.05,5.55-4.57,8.11-.09.16-.19.31-.28.47ZM1139.34,1148.2c-.71,1.38-2.15,4.15-4.22,8.07-14.14-4.81-26.91-11.47-38.31-19.99,3.76-3.97,6.08-9.32,6.08-15.22,0-12.25-9.93-22.17-22.17-22.17-5.58,0-10.66,2.08-14.56,5.48-17.59-25.2-29.32-58.07-35.04-98.47-2.72-19.19-3.69-37.89-3.73-54.54,16.53-.46,34.33-2.42,53.1-6.6-5.04,48.02,5.3,102.41,32.24,140.8,9.83,14.01,22.61,25.84,37.8,35.25-3.26,8.54-6.98,17.7-11.18,27.4ZM1087.71,1189.97c-42.62-14.08-72.84-41.25-89.06-80.78-5.9-14.38-9.43-31.49-12.32-50.79,9.63-2.42,16.76-11.1,16.76-21.48,0-12.25-9.93-22.17-22.17-22.17-.12,0-.23.02-.34.02-2.69-20.8-5.94-43.59-11.26-67.89,14.62,2.7,31.55,4.6,50.31,4.6.52,0,1.05-.01,1.57-.02.05,16.85,1.03,35.77,3.77,55.17,5.17,36.6,15.51,67.79,30.73,92.71,2.05,3.35,4.2,6.56,6.42,9.68-2.25,3.47-3.57,7.6-3.57,12.04,0,12.25,9.93,22.17,22.17,22.17.25,0,.5-.03.75-.04,5.07,16.02,6.75,31.82,6.25,46.77ZM752.49,993.08c-2.46,0-4.82.42-7.03,1.16-11.72-47.42-28.8-96.63-58.06-140.06-27.13-40.27-61.08-60.98-98.38-74.9,5.09-2.15,9.2-6.17,11.51-11.18,42.13,20.18,84.98,46.81,127.02,85.27-1.34,2.4-2.12,5.16-2.12,8.11,0,9.18,7.44,16.63,16.63,16.63,3.12,0,6.02-.87,8.52-2.37,87.34,89.98,85.31,136.24,82.96,189.79-.53,12.14-.14,23.78,1.16,35.02-16.1.59-31.27,1.78-45.69,3.45-3.21-8.88-6.21-17.54-9.09-25.86-5.53-15.96-10.67-30.78-16.08-43.85,6.48-3.87,10.83-10.93,10.83-19.03,0-12.25-9.93-22.17-22.17-22.17ZM420.4,723.68c4.01-2.67,8.44-5.38,13.29-8.02,3.78-2.06,7.95-4.15,12.48-6.18,8.08,3.74,16.5,7.07,25.27,9.91,7.78,2.52,15.65,5.07,23.6,7.69-10.74,6.76-23.39,11.18-37.88,13.2-12.48-4.64-24.79-10.04-36.77-16.61ZM594.05,697.47c12.25,0,22.17-9.93,22.17-22.17,0-10.05-6.69-18.52-15.85-21.24.07-.56.13-1.11.19-1.67,16.37,3.49,32.35,8.93,48.05,15.88-.43,20.68-.86,38.99-1.24,54.73-18.5-10.62-37.06-19.44-55.49-25.64.71.07,1.43.11,2.16.11ZM528.83,397.5c16.54,5.07,32.21,11.93,46.53,20.64,39.92,24.28,65.05,59.91,72.78,102.26-11.13,1.18-19.81,10.6-19.81,22.04,0,12.24,9.92,22.16,22.16,22.17-.55,36.16-1.15,68.62-1.73,96.9-15.52-6.71-31.32-11.96-47.55-15.36,7.52-81.26-20.69-130.72-43.86-171.27-15.3-26.78-28.79-50.42-28.53-77.39ZM906.38,482.11c-4.59,1.21-9.18,2.43-13.74,3.65-2.75.73-5.5,1.46-8.24,2.19-.1-.34-.19-.68-.29-1.01,7.2-2.18,14.45-4.4,21.74-6.64.18.61.35,1.21.53,1.82ZM878.41,489.52c-5.53,1.46-11.04,2.9-16.51,4.3-.01-.09-.02-.18-.03-.27,5.4-1.58,10.84-3.19,16.32-4.84.08.27.15.54.23.81ZM1205.53,845.37c-8.41,6.29-17.07,11.98-25.94,17.07-11.83-3.86-23.92-6.95-36.3-9.65,12.54-4.7,24.57-10.91,35.77-18.48,7.28,2.67,16.35,6.32,26.47,11.06ZM1239.74,856.46c-.29-.18-.58-.36-.88-.53.3-.29.59-.57.89-.86-.01.28-.04.56-.04.84,0,.19.02.37.03.55ZM1241.77,865.19c3.31,7.17,10.32,12.25,18.59,12.81,40.42,30.28,78.89,76.48,83.91,144.08,2.68,36.03-2.87,65.62-11.16,88.85-3.47.48-6.97.88-10.49,1.2,2.94-12.8,4.91-25.63,5.79-38.36,3.39-48.67-9.14-93.38-36.24-129.28-24.7-32.73-50.26-53.37-77.09-67.31,6.43-5.29,12.76-10.87,19-16.7,2.54,1.51,5.11,3.08,7.68,4.72ZM948.85,935.85c-.39-11.9-10.14-21.44-22.14-21.44-6.1,0-11.62,2.47-15.63,6.45-35.48-19.13-76.19-53.38-118.8-89.25-22.66-19.08-46.26-38.93-70.37-57.59-3.62-22.63-5.42-45.57-6.25-67.25,27.14,18.65,54.04,40.14,81.47,62.07,45.02,35.98,91.21,72.89,140.84,98.09,10.58,24.91,17.93,48.98,23.34,72-4.43-.98-8.59-2.02-12.47-3.08ZM731.52,848.61c-26.42-24.14-53.12-43.67-79.75-59.87.18-5.63.77-24.6,1.54-55.05,21.13,12.8,42.2,27.8,62.92,43.77,3.97,23.93,9.98,47.49,18.95,68.89-1.32.6-2.55,1.35-3.65,2.26ZM653.49,726.56c.39-15.83.82-34.4,1.27-55.49,18.46,8.67,36.58,19.37,54.57,31.4.68,21.19,2.26,43.72,5.51,66.13-20.2-15.36-40.73-29.76-61.35-42.04ZM715.15,659.85c.09-7.32.82-16.68,1.66-27.51,2.06-26.4,4.81-61.62.59-98.27,7.95-1.76,14.28-7.78,16.5-15.55,9.46.4,18.99.26,28.57-.35,3.25,16.21,4.73,32.31,6.23,48.77,5.14,56.28,10.45,114.37,94.87,183.48-2.01,2.75-3.21,6.13-3.21,9.79,0,9.18,7.44,16.63,16.63,16.63,2.73,0,5.3-.67,7.57-1.84,21.36,28.41,37.33,56.12,49.45,82.88-46.56-24.79-90.32-59.75-133.01-93.88-28.81-23.03-57.03-45.58-85.59-64.93-.39-13.82-.4-27.05-.26-39.22ZM1124.75,858.54c2.3-.57,4.59-1.19,6.87-1.86,13.83,2.79,27.28,5.91,40.4,9.91-22.42,11.82-46.14,19.84-70.78,23.81,6.27-13.21,14.21-24.09,23.51-31.86ZM1099.99,856.45c-32.96,2.98-63.89-4.38-91.92-21.88-4.34-2.71-8.66-5.82-12.97-9.26,37.85,13.31,73.01,19.68,105.9,25.63,5.46.99,10.86,1.96,16.21,2.96-5.68,1.17-11.43,2.03-17.23,2.55ZM1004.79,839.82c24.98,15.6,52.18,23.47,81.03,23.47,4.86,0,9.77-.22,14.72-.67,4.26-.39,8.5-.94,12.71-1.67-7.76,8.4-14.22,18.77-19.35,30.51-14.34,1.83-28.97,2.31-43.83,1.38.44-1.74.7-3.55.7-5.42,0-12.25-9.93-22.17-22.17-22.17s-21.47,9.27-22.11,20.95c-6.48-1.57-12.98-3.4-19.51-5.5-15.16-4.88-29.98-11.14-44.53-18.44-12.65-29.4-29.68-59.95-53.01-91.04.2-.22.39-.45.57-.68,31.14,22.06,60.66,37.44,88.73,48.66,8.59,8.19,17.28,15.17,26.04,20.64ZM892.92,765c.45-1.52.71-3.12.71-4.78,0-9.18-7.44-16.63-16.63-16.63-3.26,0-6.29.95-8.86,2.58-83-67.48-87.99-122.13-93.26-179.78-1.46-15.95-2.94-32.12-6.24-48.65,12.87-1.07,25.87-2.92,39-5.32.27.64.54,1.29.8,1.94,8.23,19.84,18.46,44.48,30.29,71.35-3.05,3.8-4.89,8.62-4.89,13.87,0,11.9,9.39,21.59,21.16,22.12,31.08,66.92,70.24,140.13,112.5,186-23.81-10.53-48.63-24.26-74.58-42.71ZM843.53,581.26c-11.44-26.06-21.36-49.95-29.37-69.27-.1-.25-.2-.49-.31-.74,8.81-1.71,17.7-3.67,26.64-5.77,7.55,29.66,10.58,55.08,11.76,72.28-3.19.55-6.15,1.75-8.72,3.5ZM946.08,870.92c12.76,6.09,25.75,11.39,39.01,15.66,7.36,2.37,14.69,4.4,22,6.13,1.93,7.88,8.06,14.09,15.9,16.13-.86,9.74-1.63,22.23-1.78,36.43-20.1.12-38.11-1.99-53.38-4.97-5.12-22.06-12.01-45.3-21.75-69.38ZM1029.14,909.56c7.77-.19,14.54-4.37,18.35-10.57,5.99.44,11.95.68,17.87.68,8.67,0,17.27-.48,25.78-1.42-4.64,12.26-7.95,25.79-9.88,39.98-19.06,4.39-37.13,6.46-53.86,6.94.15-13.86.9-26.07,1.74-35.6ZM1098.19,897.33c28.48-4.06,55.97-13.45,81.96-28.12,6.47,2.19,12.85,4.63,19.16,7.38-12.31,12.27-20.2,19.28-20.5,19.54l.02.02c-18.98,12.35-38.67,22.46-59.04,30.28-10.93,4.2-21.63,7.55-32.06,10.21,2.14-14.35,5.69-27.61,10.46-39.31ZM1216.4,867.98c3.43-3.58,7.04-7.41,10.79-11.49.43.24.86.49,1.29.73-3.99,3.7-8.02,7.29-12.08,10.76ZM1204.04,871.83c-5.54-2.49-11.14-4.73-16.8-6.77,2.54-1.55,5.07-3.14,7.58-4.79,5.69-3.73,11.27-7.74,16.76-11.99,3.27,1.61,6.62,3.33,10.04,5.16-6.37,6.88-12.28,13.03-17.57,18.4ZM1131.36,850.31c-9.57-1.91-19.32-3.67-29.26-5.46-36.95-6.68-76.79-13.89-120.09-31.06-45.01-43.37-87.28-121.38-120.51-192.75,8.94-2.28,15.7-9.97,16.57-19.39,6.24,21.05,13.99,43.16,23.62,65.24,49.22,112.81,135.93,132.47,212.42,149.82,20.49,4.65,39.85,9.04,57.59,15.02-12.61,8.02-26.19,14.29-40.35,18.59ZM858.44,577.55c-1.2-17.51-4.26-43.37-11.92-73.51,3.37-.82,6.76-1.65,10.15-2.5,2.96,21.75,8.14,51.54,17.09,84.79-3.59-4.79-9.05-8.09-15.31-8.77ZM854.33,495.74c.51-.15,1.01-.29,1.52-.44,0,.02,0,.03,0,.05-.51.13-1.02.26-1.53.39ZM711.22,534.54c4.2,36.19,1.46,71.14-.58,97.31-.85,10.94-1.59,20.39-1.68,27.92-.13,10.96-.12,22.76.16,35.09-17.84-11.75-35.84-22.18-54.22-30.61.6-29.16,1.23-62.85,1.8-100.53,9.23-2.68,15.98-11.18,15.98-21.28,0-10.88-7.85-19.92-18.19-21.8-7.73-44.7-33.96-82.29-75.91-107.8-15.11-9.19-31.71-16.5-49.42-21.83.21-2.29.51-4.6.93-6.95,1.55-8.68,3.44-16.62,5.54-23.9,83.34,14.46,137.93,54.04,162.24,117.67,1.86,4.86,3.5,9.78,4.97,14.73-7.34,3.61-12.41,11.15-12.41,19.88,0,11.78,9.2,21.39,20.8,22.1ZM645.69,785.1c-14.51-8.56-28.99-16.17-43.38-23.04.15-1.05.26-2.12.26-3.22,0-12.25-9.93-22.17-22.17-22.17-6.98,0-13.2,3.23-17.27,8.28-18.54-7.43-36.84-13.92-54.77-19.95,4.41-3.78,8.44-8.01,12.07-12.7,4.44-5.73,8.3-12.16,11.58-19.25,7.47.22,15.23.82,23.3,1.9,30.1,4.03,61.03,17.08,91.89,35.12-.7,27.76-1.26,46.54-1.52,55.04ZM515.53,708.5c-4.16,5.37-8.89,10.09-14.15,14.16-9.46-3.14-18.81-6.17-28.03-9.16-6.65-2.15-13.08-4.62-19.32-7.31,18.63-7.32,42.49-13.19,71.17-13.26-2.82,5.68-6.04,10.87-9.67,15.56ZM502.49,729.56c18.77,6.27,37.96,13.01,57.42,20.78-1.09,2.62-1.69,5.49-1.69,8.5,0,4.14,1.15,8,3.13,11.31-12.31-3.62-24.86-6.87-37.56-10.15-18.21-4.71-36.69-9.48-54.93-15.59,12.74-2.98,23.98-7.95,33.64-14.85ZM855.77,1114.36c2.89,6.57,9.45,11.17,17.09,11.17,1.49,0,2.93-.19,4.32-.52,32.06,69.75,81.48,102.22,118.63,117.24,34.59,13.99,64.12,15.72,75.46,15.8-.27.61-.53,1.22-.8,1.82-1.22,1.58-10.03,12.23-28.28,16.64-18.35,4.43-50.24,3.3-97.98-27.25-57.02-36.48-90.36-80.69-100.96-134.21,4.06-.27,8.24-.5,12.54-.69ZM1074.49,1250.36c-.2.5-.4.99-.6,1.48-7.93.1-39.43-.58-76.02-15.44-35.96-14.6-83.81-46.13-114.98-113.81,5.19-3.32,8.65-9.12,8.65-15.73,0-10.31-8.36-18.67-18.67-18.67-7.94,0-14.7,4.96-17.4,11.94-4.94.02-9.8.09-14.57.21-1.31-11.13-1.7-22.64-1.18-34.55,2.31-52.66,4.49-102.41-84.51-194.18,2.17-2.81,3.47-6.32,3.47-10.14,0-9.18-7.44-16.63-16.63-16.63-.26,0-.52.03-.78.04-8.15-19.19-13.85-40.24-17.79-61.79,22.17,17.37,43.89,35.65,64.82,53.26,42.5,35.77,83.12,69.95,119.02,89.5-1.76,3.18-2.77,6.83-2.77,10.73,0,9.94,6.55,18.36,15.56,21.17-3.28,25.24-6.62,64.23-3.2,103-8.05,2.08-14,9.36-14,18.06,0,10.31,8.36,18.67,18.67,18.67.31,0,.62-.03.93-.05,5.42,23.82,14.51,45.71,29.09,61.98,27.77,30.98,74.15,59.92,129.09,72.95-1.88,6.42-4,12.46-6.2,18ZM956.21,1155.28c-13.31-14.86-22.19-35.47-27.65-59.16,6.85-2.77,11.69-9.47,11.69-17.31,0-9.84-7.62-17.89-17.28-18.6-2.99-32.72-1.3-68.3,3.17-101.49.2,0,.39.03.58.03,10.34,0,19.01-7.09,21.46-16.67,4.53,1.22,9.43,2.41,14.67,3.51,5.46,24.69,8.78,48.14,11.61,70.12-9.09,2.77-15.71,11.21-15.71,21.21,0,11.99,9.53,21.73,21.42,22.13,2.97,19.82,6.6,37.46,12.76,52.48,13.12,31.98,39.91,67.49,94.45,84.95-.8,10.55-2.64,20.61-5.04,29.94-53.7-12.66-99.01-40.92-126.12-71.15ZM1117.79,1081.99c-22.8-32.5-34.78-79.69-32.04-126.24.25-4.24.62-8.4,1.09-12.49,11.41-2.81,23.16-6.44,35.16-11.05,30.83-11.84,60.11-28.79,87.74-50.72,27.08,13.62,52.78,33.97,77.5,66.73,33.67,44.62,43.08,103.88,28.84,164.4-28.68,1.7-58.26-2.33-84.26-14.99-12.59-6.13-23.6-13.94-33.09-23.32,3.76-3.97,6.08-9.32,6.08-15.22,0-12.25-9.93-22.17-22.17-22.17-3.19,0-6.22.69-8.96,1.9-3.47-7.23-6.42-14.96-8.86-23.19,7.79-3.44,13.23-11.22,13.23-20.28,0-12.25-9.93-22.17-22.17-22.17s-22.17,9.93-22.17,22.17,9.93,22.17,22.17,22.17c1.02,0,2.01-.09,2.99-.23,2.62,8.75,5.83,17.01,9.61,24.74-4.89,4.07-8.01,10.2-8.01,17.06,0,5.72,2.19,10.92,5.74,14.85-3.05,10.76-7.41,24.61-13.46,40.94-14.03-8.86-25.85-19.9-34.96-32.89ZM1171.42,1078.19c3.29,1.94,7.12,3.07,11.21,3.07s7.99-1.15,11.3-3.12c10.11,10.18,21.87,18.58,35.17,25.06,23.14,11.27,48.99,15.96,74.6,15.96,3.62,0,7.24-.12,10.85-.3-1.23,4.7-2.63,9.4-4.14,14.11-27.03,6.31-54.58,8.59-80.41,6.33-27.3-2.39-51.66-9.67-71.86-21.18,5.85-15.69,10.16-29.16,13.28-39.92ZM1321.1,1118.43c3.2-.26,6.38-.56,9.55-.95-1.61,4.03-3.29,7.86-5.02,11.46-2.7.79-5.4,1.54-8.12,2.25,1.31-4.25,2.5-8.5,3.59-12.76ZM1340.13,1109.86c7.64-22.8,12.98-52.33,10.32-88.24-3.49-47.01-23.48-89.1-59.4-125.11-7.11-7.13-14.5-13.66-22.01-19.64,8.73-2.98,15.02-11.23,15.02-20.97,0-.49-.04-.97-.07-1.45,39.72,31.58,72.57,75.77,82.99,133.89,9.03,50.37-1.95,90.93-15.62,119.32-3.69.82-7.44,1.55-11.22,2.19ZM1233.34,852.66c-.58-.33-1.16-.66-1.73-.99,5.78-6.37,11.85-13.26,18.09-20.61,1.02.59,2.03,1.19,3.04,1.8-6.36,6.91-12.83,13.51-19.4,19.8ZM1211.18,841.03c-.86-.41-1.71-.81-2.56-1.2,3.97-3.68,10.97-10.46,19.7-20.12,1.53.74,3.05,1.49,4.58,2.26-7.03,6.82-14.27,13.19-21.71,19.07ZM1202.49,837.04c-1.46-.64-2.9-1.27-4.33-1.88,4-3.73,10.96-10.56,19.53-20.34,1.59.7,3.19,1.41,4.78,2.14-9.69,10.61-17.01,17.42-19.98,20.09ZM1191.84,832.56c-2.26-.91-4.48-1.77-6.65-2.59,7.86-5.81,15.26-12.32,22.11-19.45,1.46.58,2.92,1.17,4.39,1.77-9.6,10.83-16.93,17.66-19.85,20.28ZM1178.17,827.4c-1.48-.52-2.95-1.03-4.38-1.52-18.06-6.1-37.6-10.53-58.29-15.22-75.06-17.02-160.14-36.32-208.12-146.25-27.55-63.15-39.57-126.47-44.68-164.4,5.76-1.47,11.56-2.99,17.38-4.52,4.99,18.01,9.6,36.2,14.17,54.26,9.18,36.25,17.85,70.5,29.23,102.51,17.82,50.09,48.12,85.59,92.63,108.54,39.82,20.53,86.11,28.04,126.13,32.68,17.42,2.02,37.66,6.85,58.76,14.64-7.07,7.14-14.73,13.59-22.84,19.29ZM1142.96,787.32c-83.19-9.64-175.17-28.99-213.64-137.14-11.29-31.74-19.92-65.84-29.06-101.95-4.58-18.08-9.19-36.29-14.18-54.32,2.72-.72,5.43-1.44,8.16-2.17,4.6-1.22,9.22-2.45,13.85-3.67,3.66,12.9,7.2,25.86,10.73,38.75,15.08,55.18,29.32,107.31,50.92,148.78,39.86,76.54,113.44,85.45,178.36,93.32,4.32.52,8.57,1.05,12.8,1.58,1.14,11.18,10.58,19.9,22.06,19.9,8.95,0,16.64-5.31,20.14-12.95,3.52.81,7,1.66,10.38,2.63,2.86.82,5.73,1.71,8.61,2.65-3.34,4.61-6.61,8.87-9.74,12.74-2.12,2.63-4.33,5.17-6.59,7.65-21.05-7.98-42.46-13.45-62.78-15.8ZM1215.17,774.12c-3.37-.96-6.83-1.82-10.32-2.63.16-1.07.27-2.16.27-3.27,0-5.76-2.22-10.99-5.82-14.94,7.64,1.09,15.53,2.29,23.79,3.69,4.8.81,9.49,1.75,14.13,2.76-3.81,6.37-7.64,12.28-11.42,17.73-3.54-1.2-7.09-2.34-10.62-3.35ZM969.38,518.89c.21,29.1,4.62,59.57,8.37,80.4-.33.13-.65.28-.98.43-12.87-35.28-20.58-73.78-28.11-111.44-.67-3.34-1.34-6.69-2.01-10.03,7.13-1.72,14.31-3.37,21.53-4.94.68,14.61,1.09,29.85,1.2,45.58ZM942.59,489.49c7.68,38.38,15.54,77.64,28.85,113.69-4.64,4.06-7.58,10.01-7.58,16.66,0,12.25,9.93,22.17,22.17,22.17.94,0,1.87-.08,2.78-.19,2.19,4,4.48,7.95,6.89,11.81,49.98,79.82,98.87,86.08,172.88,95.56.83.11,1.66.21,2.49.32-5.13,3.26-8.83,8.56-9.94,14.77-4.06-.51-8.16-1.01-12.31-1.52-63.4-7.68-135.27-16.39-173.61-90.03-21.29-40.89-35.45-92.7-50.44-147.56-3.52-12.87-7.05-25.81-10.71-38.69,8.8-2.31,17.64-4.58,26.56-6.78.66,3.26,1.31,6.53,1.96,9.78ZM912.37,480.53c-.2-.69-.4-1.37-.59-2.06,8.96-2.75,17.94-5.49,26.94-8.2.23,1.12.46,2.24.68,3.36-9.07,2.23-18.08,4.55-27.03,6.89ZM910.05,472.52c-.24-.81-.48-1.61-.71-2.42,6.28-2.53,12.53-5.07,18.77-7.6,2.77-1.13,5.54-2.25,8.3-3.37.35,1.68.71,3.37,1.06,5.05-9.15,2.75-18.3,5.54-27.41,8.34ZM904.13,474.34c-7.29,2.24-14.53,4.46-21.72,6.63-.03-.09-.05-.17-.08-.26,7.13-2.72,14.2-5.49,21.23-8.3.19.64.38,1.28.57,1.92ZM829.66,488.86c1.86-.77,3.71-1.54,5.54-2.33.03.1.06.19.09.29-1.86.69-3.74,1.37-5.62,2.04ZM732.68,503.09c-3.53-7.56-11.18-12.82-20.08-12.82-1.32,0-2.62.14-3.88.36-1.5-5.04-3.18-10.05-5.07-15.01-25.07-65.62-80.99-106.45-166.21-121.42,3.26-10.17,6.92-18.89,10.63-26.31,23.85,4.46,116.23,26.75,179.71,112.32,15.36,20.7,24.42,40.24,30.11,59.39-8.09,1.5-16.47,2.67-25.22,3.48ZM555.79,647.98c13.18-.24,26.05.9,38.68,3.21-.07.65-.15,1.3-.23,1.95-.07,0-.13,0-.19,0-12.25,0-22.17,9.93-22.17,22.17,0,8.33,4.6,15.58,11.39,19.37-9.08-2.65-18.14-4.66-27.13-5.86-7.42-.99-14.58-1.6-21.51-1.88,4.48-11.29,7.65-24.11,9.5-38.44,3.82-.26,7.7-.44,11.65-.51ZM528.03,686.76c-33.72-.36-61.18,7.09-81.75,15.92-7.28-3.48-14.26-7.3-20.95-11.43,24.77-17.56,62.89-37.47,112.49-42.24-1.92,14.18-5.18,26.78-9.8,37.75ZM438.97,706.01c-3.01,1.45-5.86,2.91-8.51,4.36-6,3.28-11.36,6.64-16.09,9.9-4.53-2.66-9.01-5.5-13.43-8.54-.15-.1-.29-.21-.43-.31,5.54-5.13,12.03-10.66,19.44-16.23,6.1,3.86,12.43,7.49,19.02,10.83ZM399.24,768.86c-3.65,4.36-7.93,9.71-12.56,15.92-1.88-1.09-3.76-2.2-5.64-3.35,4.72-5.79,9.03-10.66,12.67-14.57,1.73.89,3.58,1.57,5.53,1.99ZM710.07,1041.24l-.91-3.26c-14.24-51.09-27.68-99.35-52.12-141.01-27.43-46.76-65.68-77.99-116.94-95.48-7.82-2.67-15.54-5.26-23.15-7.82-33.82-11.37-65.32-21.96-94.09-35.06,2.01-3.34,3.19-7.24,3.19-11.42,0-8.38-4.65-15.66-11.5-19.44.06-.04.12-.09.18-.13,13.57,7.67,27.53,13.8,41.66,18.99v.05s.07-.01.11-.01c21.77,7.98,43.94,13.72,65.74,19.35,61.21,15.82,119.02,30.76,160.03,91.64,29.33,43.53,46.01,91.79,57.6,139.4-5.76,4-9.55,10.66-9.55,18.21,0,10.92,7.91,19.98,18.31,21.81.02.09.04.18.05.26-6.82,10.7-17.31,21.05-30.77,30.64-2.58-8.37-5.2-17.28-7.83-26.73ZM750.34,1045.83c2.1,10.9,4.07,21.67,5.99,32.23-3.04,1.59-13.91,7.17-30.47,14.51-1.96-5.77-3.96-11.85-5.98-18.27,12.5-8.72,22.88-18.27,30.46-28.46ZM837.02,1115.5c2.82,14.37,7.24,28.1,13.33,41.36,17.15,37.32,47.6,70.16,90.5,97.61,31.43,20.11,59.58,30.22,84.01,30.22,6.71,0,13.13-.76,19.27-2.29,7.78-1.94,13.97-4.89,18.75-7.89-6.67,6.44-45.42,40.77-97.89,25.19-58.18-17.28-120.31-73.08-151.08-135.71-7.02-14.28-13.09-28.75-18.54-42.91,12.55-2.47,26.26-4.35,41.65-5.58ZM1088.38,1227.79c2.57-9.96,4.25-19.8,5.06-29.47,5.26,1.5,10.75,2.84,16.51,3.99-4.77,8.44-9.94,17.44-15.4,26.7-2.07-.39-4.12-.79-6.17-1.22ZM1093.87,1191.88c.75-17.24-1.33-33.92-6.25-49.76,1.51-.5,2.94-1.16,4.29-1.95,12,9.24,25.44,16.46,40.28,21.62-4.65,8.73-11.18,20.82-19,34.76-6.69-1.29-13.13-2.85-19.33-4.67ZM1144.89,1150.95c.29-.55.45-.87.48-.92l-.06-.03c3.97-9.17,7.49-17.87,10.62-26.02,20.81,11.67,45.72,19.05,73.54,21.49,6.72.59,13.56.88,20.47.88,19.08,0,38.73-2.23,58.16-6.5-1.53,4.34-3.14,8.68-4.91,13-38.44,14.69-95.13,25.69-161.56,5.5,1.12-2.49,2.21-4.96,3.26-7.39ZM1327.01,1140.18c1.04-1.92,2.1-3.96,3.15-6.09,2.48-.75,4.95-1.55,7.42-2.37-1.93,2.87-3.85,5.59-5.76,8.15-2.1,1.11-4.26,2.21-6.48,3.3.56-.99,1.12-1.96,1.68-2.99ZM1347.09,1128.38s.04-.02.06-.02c-.04.05-.09.09-.13.14.02-.04.05-.08.07-.11ZM1352.09,1119.76c1.19-2.17,2.37-4.42,3.54-6.75,1.8-.42,3.58-.87,5.36-1.33-1.69,2.29-3.37,4.46-5.04,6.52-1.28.54-2.57,1.05-3.86,1.57ZM1257.07,828.12c-1.08-.65-2.17-1.3-3.26-1.94,5.73-6.86,11.56-14.08,17.42-21.63,1.29.73,2.58,1.48,3.87,2.24-5.91,7.4-11.92,14.51-18.03,21.33ZM1248.37,823.05c-1.79-1.01-3.6-1.99-5.41-2.97,6.38-6.58,12.56-13.52,18.54-20.81,1.42.73,2.84,1.48,4.26,2.24-5.85,7.52-11.68,14.71-17.39,21.53ZM1237.62,817.28c-1.64-.84-3.29-1.67-4.94-2.48,5.35-6.11,11.2-13.17,17.31-21.14,2.09.96,4.18,1.95,6.26,2.97-6.01,7.27-12.22,14.16-18.63,20.65ZM1226.88,812.03c-1.63-.76-3.26-1.5-4.9-2.23,5.14-6.1,10.72-13.14,16.5-21.1,1.9.76,3.79,1.55,5.69,2.37-6.14,7.95-11.99,14.94-17.29,20.96ZM1216.06,807.25c-1.38-.58-2.77-1.15-4.16-1.71,1.79-2.02,3.54-4.07,5.25-6.18,3.55-4.39,7.27-9.24,11.06-14.55,1.45.51,2.89,1.04,4.34,1.58-5.81,7.92-11.39,14.88-16.49,20.86ZM1231.85,779.59c3.89-5.67,7.82-11.82,11.71-18.43,1.73.42,3.44.86,5.15,1.31-4.18,6.72-8.36,12.98-12.47,18.79-1.46-.57-2.93-1.13-4.39-1.67ZM1246.78,755.58c4.49-7.98,8.89-16.6,13.06-25.84,2.08.58,4.12,1.2,6.17,1.81-4.51,9.03-9.19,17.49-13.92,25.38-1.76-.47-3.53-.91-5.31-1.35ZM1262.35,724.01c5.19-12.13,9.94-25.29,13.96-39.46,2.79.81,5.59,1.65,8.39,2.54-4.79,13.86-10.2,26.81-15.95,38.81-2.13-.64-4.24-1.28-6.4-1.89ZM1099.24,440.81c.32,4.57.63,9.08.96,13.53-4.65-.25-9.36-.41-14.15-.49-9.09-.14-18.07.03-26.95.46-.06-.82-.11-1.63-.17-2.45-.24-3.56-.49-7.12-.74-10.7,13.83-2.09,27.45-3.49,40.79-4.05.09,1.23.17,2.47.26,3.69ZM1052.76,452.29c.05.79.11,1.58.16,2.37-11.52.72-22.88,1.87-34.1,3.37-.31-3.04-.64-6.09-.98-9.15,11.5-2.6,22.92-4.87,34.22-6.73.24,3.39.47,6.77.7,10.14ZM1012.71,458.87c-8.76,1.27-17.44,2.73-26.04,4.36-.61-2.05-1.21-4.1-1.81-6.17,9.01-2.41,18-4.69,26.94-6.79.31,2.87.62,5.74.91,8.6ZM980.56,464.41c-2.19.43-4.39.88-6.57,1.33-.1-1.89-.21-3.76-.32-5.62,1.74-.48,3.48-.97,5.22-1.44.55,1.92,1.12,3.83,1.68,5.74ZM967.86,467.04c-7.53,1.62-15.01,3.34-22.44,5.13-.25-1.23-.5-2.45-.75-3.68,7.63-2.27,15.27-4.5,22.9-6.66.1,1.73.2,3.46.29,5.21ZM943.42,462.4c-.39-1.88-.79-3.75-1.18-5.63,8.15-3.29,16.26-6.53,24.36-9.67.21,2.77.4,5.57.59,8.4-7.92,2.24-15.85,4.55-23.77,6.9ZM940.92,450.63c-.46-2.12-.93-4.25-1.4-6.37,8.49-4.4,17.05-8.77,25.75-13.04.29,3.1.56,6.25.82,9.43-8.38,3.24-16.76,6.58-25.17,9.97ZM935.09,452.98c-3.1,1.26-6.21,2.52-9.32,3.78-6.04,2.46-12.11,4.92-18.2,7.37-.29-.95-.58-1.9-.86-2.85,6.95-3.56,13.85-7.15,20.71-10.73,2.13-1.11,4.27-2.23,6.41-3.34.43,1.92.85,3.85,1.26,5.77ZM901.8,466.45c-7.02,2.8-14.09,5.58-21.21,8.29-.04-.15-.09-.3-.14-.45,6.97-3.31,13.84-6.71,20.65-10.16.23.77.47,1.54.7,2.31ZM841.09,484.61c-.06-.2-.12-.39-.18-.59,4.43-1.99,8.77-4.04,13.02-6.12.04.48.09.96.14,1.47-4.28,1.8-8.6,3.55-12.98,5.25ZM675.29,337.22c53.73,32.22,89.51,75.58,119.65,145,.91,2.09,1.87,4.35,2.88,6.72-10.74,3.79-22,7-33.91,9.49-5.88-19.94-15.26-40.48-31.16-61.91-39.03-52.61-88.49-81.27-123.11-96.04-26.09-11.13-47.51-16.23-58.54-18.36,1.92-3.47,3.82-6.58,5.67-9.38,24.08-14.19,68.95-5.25,118.53,24.47ZM510.07,392.58c-6.79,22.52-11.74,48.79-11.93,77.78-3.81.65-7.3,2.26-10.18,4.6-3.38-2.49-6.76-4.79-10.1-6.88,8.05-22.16,18.46-47.66,31.84-75.57.13.03.25.05.38.08ZM487.49,426.68c-6.55-3.31-22.79-10.53-46.81-14.66-24.03-4.14-59.94-5.64-102.99,7.09,1.1-2.64,2.27-5.26,3.48-7.88,51.9-23.09,110.08-29.79,162.26-19.99-5.87,12.31-11.17,24.14-15.95,35.44ZM485.09,432.43c-4.73,11.42-8.93,22.25-12.63,32.39-1.09-.63-2.18-1.25-3.26-1.84-35.77-19.63-80.95-28.4-123.95-24.05-5.12.52-10.31,1.23-15.54,2.11,1.52-4.85,3.18-9.71,5.02-14.55,80.25-25.43,137.96-.29,150.35,5.93ZM345.87,445.09c42.74-4.32,88.48,4.02,124.57,25.32-8.6,24.13-14.36,44.12-18.08,58.73-13.77-24.34-44.07-54.03-97.42-63.76-9.79-1.79-20.21-2.61-31.03-2.54,1.1-4.99,2.36-10.03,3.8-15.1,6.34-1.18,12.43-2.06,18.15-2.64ZM353.84,471.46c38.67,7.06,62.76,24.81,76.16,38.46,7.04,7.17,12.4,14.44,16.34,21.18-8.37,3.17-14.33,11.24-14.33,20.72,0,12.25,9.93,22.17,22.17,22.17s22.17-9.93,22.17-22.17c0-10.77-7.68-19.73-17.85-21.74,3.61-14.12,9.15-33.29,17.32-56.35,2.75,1.77,5.44,3.62,8.06,5.55-2.61,3.64-4.16,8.08-4.16,12.9,0,12.25,9.93,22.17,22.17,22.17,4.71,0,9.07-1.48,12.66-3.99,11.34,16.13,19.13,35.23,21.96,57.33,3.64,28.37,4.32,53.41,2.07,75.01-52.96,4.77-93.27,26.4-118.88,44.96-54.89-36.2-88.56-92.91-98.9-141.76-4.02-19.02-4.06-46.76,1.8-76.8,10.99-.17,21.49.59,31.22,2.36ZM314.76,547.19c10.5,49.64,44.44,107.15,99.7,144.39-7.31,5.59-13.69,11.08-19.12,16.16-53.89-39.12-89.48-93.82-97.99-151.02-4.33-29.07-1.87-57.98,7.26-86.54,3.96-.42,7.88-.71,11.74-.89-5.78,30.47-5.68,58.55-1.58,77.89ZM291.22,557.64c8.71,58.52,44.85,114.41,99.58,154.45-1.64,1.61-3.16,3.16-4.59,4.65-3.44-2.2-7.52-3.49-11.91-3.49-6.23,0-11.86,2.58-15.89,6.72-29.92-24.05-55.15-56.11-74.93-102.52-12.7-29.79-13.85-66.98-3.34-107.54,3.28-12.65,7.65-25.44,12.98-38.2,1.68-.26,3.34-.5,5.01-.73-8.8,28.78-11.19,57.93-6.91,86.66ZM353.81,743.89c.31.74.65,1.46,1.03,2.15-2.61,3.06-5.51,6.56-8.65,10.44-.74-.62-1.48-1.24-2.22-1.86,3.63-4.09,6.94-7.67,9.84-10.73ZM358.65,751.12c.89.89,1.86,1.69,2.89,2.41-2.31,2.8-4.82,5.9-7.47,9.29-1.03-.8-2.06-1.61-3.08-2.43,2.75-3.41,5.32-6.51,7.66-9.28ZM367.19,756.4c1.63.55,3.33.92,5.1,1.08-2.78,3.49-5.89,7.52-9.25,12.04-1.35-.97-2.71-1.96-4.06-2.96,2.95-3.75,5.7-7.15,8.21-10.16ZM381.06,756.53c.8-.26,1.57-.56,2.33-.9,1.2,2.91,3,5.49,5.25,7.63-3.73,4.03-8.1,9.01-12.87,14.88-2.53-1.62-5.06-3.29-7.59-5.02,4.95-6.7,9.34-12.26,12.88-16.59ZM371.85,783.06c-7.16,9.2-14.98,20.25-22.68,33.04-2.27-1.44-4.5-2.95-6.68-4.53,7.67-12.75,15.24-23.99,22-33.39,2.45,1.68,4.91,3.31,7.36,4.88ZM377.1,786.36c1.96,1.2,3.91,2.36,5.87,3.5-6.83,9.51-14.19,20.74-21.26,33.34-2.46-1.24-4.87-2.54-7.25-3.91,7.7-12.8,15.52-23.82,22.65-32.93ZM358.82,828.47c-6.88,12.81-13.35,26.92-18.61,42-3.16-.99-6.3-2.02-9.44-3.09,6.18-15.85,13.31-30.19,20.65-42.92,2.43,1.4,4.9,2.74,7.4,4.01ZM338.23,876.37c-4.12,12.83-7.32,26.32-9.11,40.27-3.93-1.56-7.87-3.17-11.81-4.82,2.98-13.66,6.83-26.55,11.25-38.61,3.21,1.1,6.44,2.15,9.67,3.16ZM514.93,1144.94c-.37-5.59-.75-11.21-1.16-16.83,3.68.12,7.38.19,11.1.19,10.59,0,21.32-.48,32.07-1.39,0,.2.02.41.03.61.23,4.92.47,9.79.72,14.62-14.14,1.85-28.45,3.01-42.73,3.28-.01-.16-.02-.32-.03-.48ZM563.16,1127.23c-.01-.3-.03-.6-.04-.89,12.85-1.29,25.68-3.2,38.3-5.68.41,4.45.83,8.91,1.27,13.37-12.65,2.87-25.65,5.36-38.84,7.27-.24-4.65-.47-9.33-.69-14.06ZM607.52,1119.4c8.63-1.83,17.14-3.92,25.47-6.27.42,4.23.91,8.47,1.46,12.72-8.33,2.38-16.91,4.65-25.68,6.75-.44-4.4-.85-8.8-1.25-13.2ZM639.28,1111.32c8.06-2.41,15.94-5.06,23.55-7.92.9,4.26,1.85,8.48,2.84,12.68-7.99,2.72-16.33,5.39-24.97,7.96-.54-4.25-1.02-8.49-1.42-12.72ZM668.67,1101.13c8.73-3.47,17.08-7.23,24.97-11.25.58,2.04,1.16,4.08,1.74,6.1.8,2.79,1.59,5.56,2.38,8.32-8.12,3.2-16.91,6.49-26.22,9.75-1-4.27-1.95-8.57-2.87-12.92ZM701.34,1094.29c-.69-2.44-1.39-4.88-2.1-7.34,5.34-2.89,10.44-5.91,15.27-9.05,1.91,6.02,3.78,11.73,5.63,17.16-5.11,2.21-10.65,4.54-16.6,6.94-.73-2.56-1.47-5.13-2.2-7.71ZM722.18,1101c1.66,4.76,3.28,9.29,4.87,13.58-6.32,1.42-12.51,2.91-18.61,4.46-1.05-3.62-2.11-7.27-3.16-10.96,6.05-2.44,11.69-4.82,16.9-7.08ZM727.9,1098.49c14.64-6.5,25-11.69,29.59-14.06,1.45,7.93,2.89,15.73,4.36,23.36-9.86,1.62-19.39,3.45-28.64,5.44-1.73-4.64-3.5-9.55-5.31-14.74ZM745.53,1117c-3.31.88-6.6,1.78-9.87,2.71-.08-.21-.16-.43-.24-.64,3.34-.71,6.7-1.41,10.12-2.07ZM742.32,1130.37c-.7.29-1.41.57-2.11.87-.02-.05-.04-.1-.06-.15.72-.24,1.44-.48,2.17-.72ZM1139.04,1164.04c26.89,8.26,52.23,11.54,75.5,11.54,33.2,0,62.15-6.65,85.3-14.9-.93,2.1-1.92,4.19-2.9,6.28-31.02,16.58-69.98,31.49-112.28,33.73-22.53,1.19-43.31.3-62.3-2.58,6.19-11.86,11.73-23.24,16.69-34.07ZM1318.3,1154.59c.41-.6.81-1.21,1.22-1.84,1.04-.47,2.07-.93,3.08-1.4-.34.4-.68.78-1.02,1.17-1.08.69-2.17,1.38-3.28,2.07ZM1367.78,1112.87c.9-1.26,1.79-2.55,2.69-3.87,1.25-.38,2.5-.77,3.73-1.17-1.07,1.2-2.11,2.34-3.12,3.42-1.1.54-2.2,1.09-3.3,1.61ZM1375.73,1100.8c16.39-27.03,32.81-69.39,25.23-124.53-6.91-50.28-31.19-96.82-70.2-134.59-13.95-13.51-29.8-25.79-46.65-36.34,5.78-7.43,11.46-15.14,17.05-23.12,62.03,31.87,102.8,88.38,119.39,166.81,11.62,54.94-6.21,99.76-23.23,127.68-5.03,8.25-10.28,15.55-15.27,21.82-2.07.79-4.18,1.54-6.31,2.27ZM1278.77,802.1c-1.3-.77-2.59-1.54-3.9-2.3,5.48-7.19,10.96-14.67,16.36-22.38,1.44.66,2.9,1.3,4.33,1.98-5.5,7.84-11.1,15.4-16.79,22.7ZM1269.44,796.74c-1.37-.75-2.75-1.47-4.13-2.19,5.45-6.88,10.72-14.04,15.78-21.47,1.47.59,2.93,1.19,4.38,1.81-5.29,7.53-10.66,14.83-16.03,21.86ZM1260.12,791.86c-2.13-1.07-4.26-2.12-6.41-3.13,4.7-6.32,9.52-13.15,14.35-20.48,2.52.86,5.01,1.76,7.47,2.68-4.96,7.28-10.1,14.27-15.41,20.94ZM1247.95,786.11c-1.94-.86-3.88-1.68-5.83-2.49,4.22-6.02,8.52-12.51,12.81-19.47,2.37.67,4.73,1.35,7.05,2.08-4.73,7.12-9.44,13.75-14.03,19.88ZM1258.25,758.66c4.68-7.89,9.3-16.33,13.76-25.31,2.79.87,5.54,1.77,8.26,2.69-4.83,8.8-9.8,17.07-14.78,24.81-2.39-.76-4.81-1.49-7.24-2.19ZM1274.74,727.72c5.71-12,11.08-24.91,15.85-38.71,3.41,1.15,6.83,2.36,10.27,3.64-5.41,13.46-11.37,26.08-17.6,37.84-2.8-.95-5.65-1.87-8.52-2.78ZM1292.51,683.29c2.02-6.17,3.92-12.51,5.67-19.02,1.53-5.68,2.86-11.31,4-16.86,4.17,1.44,8.31,2.93,12.41,4.48-.96,3.54-1.97,7.1-3.07,10.67-2.59,8.44-5.43,16.61-8.47,24.51-3.53-1.33-7.05-2.59-10.54-3.78ZM1303.36,641.25c3.07-16.94,4.31-33.25,3.74-48.79,5.21,2.37,10.74,4.98,16.53,7.83-1.11,14.72-3.6,29.95-7.48,45.56-4.23-1.59-8.5-3.12-12.79-4.6ZM1098.55,430.94c-13.37.56-26.99,1.96-40.8,4.03-.05-.7-.11-1.4-.16-2.11,5.28-2.49,8.94-7.85,8.94-14.07,0-.61-.04-1.21-.11-1.8,10.1-1.83,20.32-3.24,30.73-4.13.52,6.16.97,12.19,1.4,18.09ZM1011.1,444.07c-9.28,2.17-18.6,4.53-27.94,7.04-.88-3.1-1.74-6.21-2.59-9.32,9.64-3.59,19.29-6.99,28.99-10.14.55,4.15,1.06,8.29,1.54,12.43ZM977.18,452.72c-1.3.36-2.61.72-3.91,1.08-.2-3.04-.42-6.05-.65-9.02.71-.27,1.42-.54,2.13-.8.8,2.93,1.61,5.84,2.43,8.75ZM972.12,438.34c-.18-2.18-.38-4.33-.57-6.46l.85,3.26c.25.94.5,1.88.74,2.82-.34.13-.68.26-1.02.39ZM964.62,424.64c-8.96,4.36-17.78,8.85-26.51,13.37-.61-2.64-1.22-5.27-1.85-7.9,6.21-3.78,12.32-7.43,18.44-10.91,1.71-.97,4.69-2.63,8.79-4.79.39,3.35.77,6.75,1.13,10.22ZM932.43,440.96c-2.63,1.37-5.26,2.74-7.87,4.1-6.53,3.4-13.08,6.82-19.68,10.2-.5-1.63-1.01-3.27-1.52-4.89,5.88-3.58,11.65-7.15,17.34-10.67,3.39-2.1,6.71-4.15,10.01-6.18.59,2.48,1.16,4.96,1.73,7.44ZM899.27,458.12c-6.8,3.45-13.67,6.86-20.63,10.17-.3-.97-.6-1.94-.9-2.92,6.91-3.86,13.61-7.78,20.15-11.71.46,1.48.92,2.96,1.38,4.45ZM872.98,470.96c-4.27,1.99-8.58,3.94-12.94,5.84-.06-.65-.12-1.27-.17-1.87,4.19-2.13,8.3-4.3,12.34-6.5.26.84.52,1.69.77,2.53ZM859.33,468.23c-.05-.69-.09-1.28-.12-1.78,3.49-2.07,6.94-4.19,10.38-6.34.24.76.49,1.52.73,2.28-3.6,1.97-7.27,3.92-10.99,5.83ZM506.27,385.36c-16.08-3.16-32.86-4.81-50.11-4.87-.33,0-.66,0-.99,0-37.52,0-74.97,7.61-109.81,22.14,2.81-5.48,5.87-10.88,9.19-16.17,40.77-21.93,95.73-37.52,165.68-28.62-4.97,9.39-9.61,18.57-13.96,27.52ZM336.63,406.45s-.06.03-.09.04c.08-.11.16-.23.23-.34-.05.1-.09.2-.14.3ZM320.99,449.08c-1.26,4.65-2.38,9.28-3.37,13.87-3.57.14-7.18.4-10.82.73,1.48-4.15,3.09-8.29,4.85-12.42,3.16-.79,6.27-1.52,9.34-2.17ZM300.27,464.35c-1.4.17-2.8.36-4.21.55,1.6-3.6,3.29-7.19,5.05-10.78,1.1-.32,2.2-.64,3.3-.94-1.49,3.71-2.87,7.44-4.14,11.17ZM288.82,466.02c-3.92.67-7.86,1.4-11.81,2.27,1.59-2.54,3.28-5.19,5.09-7.93,3.67-1.34,7.32-2.59,10.94-3.76-1.47,3.13-2.86,6.27-4.22,9.42ZM268.48,470.33c-3.16.81-6.32,1.69-9.48,2.63,1.03-1.51,2.08-3.02,3.15-4.52,3.37-1.5,6.73-2.93,10.09-4.29-1.27,2.05-2.53,4.11-3.76,6.18ZM339.85,759.33c.81.69,1.63,1.37,2.44,2.05-6.62,8.4-14.08,18.35-21.92,29.68-1.02-1.21-2.03-2.46-3.02-3.73,8.08-10.8,15.74-20.17,22.5-28ZM355.15,771.52c1.4,1.04,2.79,2.06,4.19,3.06-6.77,9.37-14.31,20.53-21.92,33.12-1.64-1.32-3.26-2.69-4.86-4.11,7.97-12.3,15.7-23.06,22.59-32.08ZM334.31,812.91c-.2.34-.39.66-.59,1-7.66,13.12-15.79,28.59-23.29,45.82-2.58-1.07-5.15-2.17-7.7-3.32,8.51-17.57,17.63-33.56,26.55-47.69,1.65,1.44,3.33,2.84,5.03,4.19ZM339.41,816.75c2.2,1.58,4.44,3.08,6.71,4.52-7.54,13.06-14.86,27.78-21.2,44.06-2.9-1.05-5.79-2.13-8.67-3.25,7.21-16.47,15.19-31.69,23.16-45.32ZM322.73,871.16c-4.38,11.95-8.21,24.7-11.21,38.19-3.65-1.58-7.29-3.19-10.91-4.85,3.8-12.74,8.28-25,13.19-36.69,2.97,1.16,5.95,2.27,8.93,3.35ZM310.22,915.49c-.75,3.73-1.44,7.52-2.05,11.36-1.68,10.57-2.79,20.9-3.32,30.95-4.69-2.17-9.48-4.47-14.35-6.88,1.87-13.86,4.75-27.39,8.39-40.45,3.77,1.72,7.55,3.39,11.34,5.02ZM515.38,1151.59c14.35-.29,28.65-1.45,42.66-3.25.22,3.9.47,7.76.75,11.6-13.62,2.63-27.65,4.72-42.36,6.04-.37-4.75-.71-9.54-1.04-14.38ZM564.19,1147.5c13.43-1.92,26.56-4.39,39.14-7.21.31,2.93.63,5.86.96,8.8-12.94,3.57-25.99,6.86-39.39,9.63-.26-3.71-.5-7.45-.71-11.22ZM609.41,1138.91c8.97-2.11,17.63-4.38,25.91-6.73.37,2.51.76,5.03,1.17,7.55-8.75,2.64-17.45,5.22-26.16,7.69-.32-2.84-.62-5.67-.92-8.51ZM641.56,1130.38c7.04-2.07,13.77-4.19,20.13-6.29,1.85-.61,3.67-1.22,5.48-1.84.64,2.56,1.3,5.12,1.97,7.66-7.8,2.3-15.52,4.64-23.2,6.96-1.09.33-2.17.65-3.25.98-.4-2.49-.78-4.98-1.14-7.47ZM673.02,1120.23c9.39-3.28,18.25-6.61,26.48-9.85.99,3.43,1.97,6.83,2.95,10.2-9.32,2.44-18.43,4.99-27.4,7.6-.69-2.64-1.36-5.28-2.02-7.95ZM704.18,1126.52c.27.92.54,1.82.8,2.73-9.11,3.04-18.13,6.21-27.08,9.42-.43-1.5-.85-3-1.26-4.51,9.01-2.62,18.16-5.19,27.53-7.64ZM710.18,1124.98c6.24-1.58,12.59-3.1,19.06-4.55.13.35.26.69.4,1.04-6.31,1.87-12.57,3.83-18.77,5.85-.23-.78-.46-1.55-.69-2.33ZM731.88,1127.27s.03.08.05.12c-1.27.45-2.55.91-3.82,1.38-4.71,1.73-9.74,3.77-15.03,6.01-.15-.51-.3-1.01-.45-1.52,6.36-2.07,12.78-4.08,19.26-5.99ZM730.24,1134.57c1.33-.49,2.66-.97,3.98-1.44.08.19.15.38.23.57-6.4,2.82-12.68,5.84-18.96,9.04-.21-.67-.41-1.35-.62-2.02,5.42-2.31,10.57-4.39,15.36-6.16ZM736.84,1139.46c4.79,11.4,8.99,20.3,12.39,26.99-4.24,3.42-6.95,8.65-6.95,14.52,0,10.31,8.36,18.67,18.67,18.67s18.67-8.36,18.67-18.67-8.36-18.67-18.67-18.67c-2.19,0-4.29.4-6.25,1.09-3.31-6.56-7.43-15.29-12.1-26.41,7.52-3.13,15.27-5.98,23.45-8.52,3.41,15.76,7.17,30.38,11.7,43.19,2.76,7.79,5.99,15.58,9.61,23.32-4.13,4.03-6.7,9.64-6.7,15.86,0,12.25,9.93,22.17,22.17,22.17,1.91,0,3.75-.27,5.52-.72,10.55,15.95,22.72,31.17,36.15,44.99,30.44,31.35,64.71,52.78,96.48,60.36,7.39,1.76,14.62,2.55,21.66,2.55,30.95,0,57.91-15.2,76.24-29.25-25.37,26.64-63.9,54.01-111.48,46.94-93.16-13.84-161.54-94.6-191.78-159.55-6.28-13.49-12.28-30.54-18.26-49.57,6.45-3.3,12.9-6.41,19.47-9.3ZM1393.76,1093.3c2.91-4.08,5.84-8.47,8.72-13.17,17.66-28.91,36.18-75.35,24.11-132.37-16.96-80.15-58.56-137.98-121.85-170.71,3.62-5.3,7.21-10.7,10.75-16.23-.06.69-.11,1.38-.11,2.08,0,12.25,9.93,22.17,22.17,22.17,8.27,0,15.47-4.54,19.28-11.25,53.17,37.22,84.63,90.4,93.79,159.08,8.08,60.53-8.3,101.23-23.46,124.71-13.43,20.81-28.31,32.17-33.41,35.69ZM1299.17,774.23c-1.43-.69-2.88-1.34-4.33-2.01,5.41-7.89,10.71-16.01,15.84-24.34,1.48.66,2.91,1.35,4.36,2.03-5.19,8.37-10.49,16.48-15.87,24.32ZM1289.12,769.64c-1.48-.63-2.98-1.24-4.48-1.85,5.21-7.92,10.19-16.13,14.95-24.61,1.8.73,3.58,1.48,5.35,2.23-5.12,8.29-10.42,16.38-15.82,24.23ZM1279.09,765.6c-2.49-.95-4.99-1.87-7.53-2.75,4.93-7.73,9.84-15.99,14.62-24.74,2.63.94,5.23,1.89,7.8,2.87-4.75,8.54-9.72,16.74-14.89,24.61ZM1289.14,732.59c6.19-11.74,12.11-24.32,17.49-37.7,2.71,1.08,5.42,2.21,8.14,3.39-5.51,13-11.45,25.42-17.79,37.23-2.58-.99-5.2-1.96-7.84-2.91ZM1308.83,689.31c3.09-8.04,5.98-16.35,8.61-24.94,1.05-3.43,2.03-6.85,2.95-10.25,3.13,1.24,6.22,2.52,9.28,3.84-2.03,6.53-4.24,13.11-6.7,19.72-1.9,5.11-3.86,10.13-5.88,15.08-2.76-1.2-5.52-2.35-8.26-3.45ZM1321.97,648.09c3.85-15.31,6.4-30.3,7.64-44.81,3.71,1.88,7.51,3.85,11.4,5.92-2.12,13.96-5.3,28.27-9.54,42.8-3.13-1.35-6.3-2.65-9.5-3.91ZM1096.61,406.66c-10.9.94-21.6,2.43-32.16,4.37-2.02-3.51-5.37-6.14-9.36-7.24-.23-2.25-.48-4.51-.73-6.76,12.91-3.29,26.35-5.93,40.47-7.72.68,5.88,1.26,11.67,1.78,17.35ZM1048.82,403.39c-7.17.99-12.77,6.85-13.36,14.14-6.99,1.84-13.93,3.84-20.84,5.98-.63-4.37-1.3-8.76-2.03-13.15,11.49-4.39,23.36-8.35,35.7-11.73.18,1.58.36,3.17.52,4.75ZM1008.71,425.39c-9.96,3.21-19.86,6.7-29.75,10.37-.19-.73-.39-1.46-.58-2.19l-2-7.69c9.9-4.65,20-9.12,30.4-13.25.69,4.26,1.33,8.51,1.93,12.76ZM974.79,419.78c-.86-3.3-1.71-6.58-2.57-9.82,8.27-4.12,18.95-9.14,31.52-14.42.7,3.61,1.36,7.22,1.99,10.83-10.59,4.18-20.87,8.7-30.94,13.41ZM961.45,398.83c.42,2.94.84,5.92,1.23,8.97-4.38,2.31-8.09,4.35-11.04,6.02-5.64,3.2-11.25,6.53-16.93,9.98-.54-2.16-1.09-4.32-1.65-6.47,9.25-6.26,18.65-12.46,28.39-18.5ZM929.17,427.2c-3.86,2.37-7.76,4.77-11.74,7.24-5.25,3.25-10.58,6.55-16,9.86-.46-1.44-.92-2.87-1.39-4.3,4.08-2.8,8.17-5.61,12.27-8.44,5.08-3.5,10.18-7.02,15.31-10.52.53,2.05,1.04,4.11,1.55,6.16ZM895.98,447.6c-6.54,3.94-13.23,7.87-20.12,11.74-.28-.89-.57-1.76-.86-2.65,6.62-4.25,13.17-8.61,19.71-13.06.43,1.32.85,2.65,1.27,3.97ZM873,450.59c-9.81-29.47-21.51-57.75-36.73-83.43,3.62-3.95,5.85-9.19,5.85-14.97,0-12.25-9.93-22.17-22.17-22.17-3.04,0-5.94.61-8.57,1.72-5.5-6.58-11.34-12.9-17.6-18.89-43.67-41.81-99.08-63.97-152.05-60.81-2.53-4.27-7.03-7.23-12.26-7.61,60.12-18.84,137.47-2.59,197.36,65.42,29.7,33.73,49.69,78.9,65.87,127.66-6.54,4.45-13.09,8.83-19.7,13.09ZM613.17,256.46c-10.89,2.8-20.86,6.78-29.5,11.76,10.19-7.95,21.6-14.51,33.91-19.53-2.16,2.07-3.72,4.75-4.41,7.77ZM326.33,410.75c-.21.33-.41.66-.62.99-.02.01-.04.02-.06.03.23-.34.45-.68.68-1.02ZM312.83,434.52c-1.88,3.75-3.65,7.51-5.31,11.28-.85.22-1.7.46-2.55.68,1.96-3.76,4-7.5,6.12-11.23.58-.24,1.16-.49,1.74-.73ZM296.81,448.81c-2.92.88-5.84,1.81-8.76,2.78,2-2.86,4.12-5.8,6.34-8.78,2.43-1.18,4.88-2.34,7.36-3.47-1.7,3.15-3.36,6.31-4.94,9.48ZM278.04,455.12c-2.8,1.04-5.58,2.12-8.36,3.25,1.07-1.38,2.16-2.75,3.27-4.11,2.99-1.75,6.02-3.46,9.11-5.13-1.36,1.97-2.69,3.98-4.02,5.99ZM251.06,473.65c-.5.75-.97,1.52-1.46,2.28-2.01.68-4.03,1.36-6.04,2.08.35-.36.72-.72,1.08-1.09,2.13-1.12,4.27-2.21,6.41-3.27ZM313.61,792.39c1.06,1.31,2.13,2.6,3.23,3.85-10.24,15.15-20.99,32.55-31.22,51.79-1.92-1.03-3.84-2.08-5.74-3.17,11.15-19.86,22.76-37.44,33.74-52.48ZM321.12,800.94c1.16,1.21,2.35,2.39,3.54,3.54-9.25,14.57-18.72,31.13-27.55,49.35-2.01-.95-4.02-1.94-6.02-2.95,9.84-18.5,20.15-35.27,30.02-49.95ZM294.43,859.48c-5.19,11.09-10.1,22.76-14.57,34.95-2.57-1.32-5.12-2.67-7.65-4.03,5.03-11.83,10.41-23.17,15.99-33.96,2.07,1.04,4.15,2.06,6.24,3.05ZM300.04,862.06c2.64,1.18,5.29,2.32,7.94,3.42-4.78,11.45-9.23,23.63-13.06,36.38-3.19-1.51-6.37-3.04-9.52-4.61,4.47-12.28,9.41-24.03,14.63-35.19ZM293.19,907.84c-3.62,12.89-6.57,26.32-8.54,40.16-4.12-2.09-8.28-4.27-12.48-6.52,3.1-13.26,6.89-26.08,11.16-38.39,3.27,1.62,6.56,3.21,9.86,4.76ZM516.92,1172.15c14.72-1.31,28.74-3.38,42.34-5.99.34,4.06.73,8.08,1.17,12.06-13.66,3.55-27.63,6.6-42.01,8.94-.58-4.96-1.07-9.96-1.5-15.01ZM565.38,1164.96c13.5-2.77,26.63-6.06,39.64-9.64.37,3.04.75,6.08,1.15,9.12-12.99,4.37-26.19,8.5-39.68,12.17-.42-3.85-.79-7.73-1.11-11.65ZM611.06,1153.65c8.83-2.49,17.63-5.11,26.49-7.77.42,2.35.86,4.7,1.32,7.05-8.84,3.22-17.74,6.4-26.72,9.48-.38-2.92-.74-5.84-1.09-8.76ZM643.72,1144.01c1.34-.4,2.67-.81,4.01-1.21,7.62-2.31,15.28-4.62,23.02-6.91.45,1.63.9,3.25,1.37,4.87-5.93,2.15-11.83,4.32-17.72,6.48-3.14,1.15-6.29,2.31-9.45,3.46-.43-2.23-.84-4.46-1.24-6.69ZM656.54,1153.05c5.76-2.11,11.53-4.23,17.33-6.34.51,1.69,1.02,3.36,1.54,5.04-8.81,4.08-18.02,8.34-27.59,12.65-.57-2.52-1.11-5.04-1.63-7.56,3.46-1.26,6.91-2.53,10.35-3.79ZM679.63,1144.63c8.96-3.22,17.99-6.39,27.11-9.44.2.68.41,1.36.61,2.04-8.16,3.56-16.94,7.59-26.35,11.94-.46-1.51-.92-3.02-1.37-4.54ZM709.16,1143.2c.25.82.5,1.64.75,2.45-8.34,4.39-16.76,9.09-25.55,14.07-.5-1.52-1-3.05-1.49-4.59,9.4-4.35,18.16-8.37,26.29-11.93ZM711.79,1151.66c5.94,18.84,11.93,35.77,18.22,49.29,4.12,8.85,8.77,17.62,13.84,26.22-3.9-3.42-8.99-5.5-14.59-5.5-6.36,0-12.08,2.7-16.13,6.99-10.48-20.64-19.32-41.46-26.75-62.97,8.75-4.96,17.12-9.65,25.4-14.02ZM751.43,1243.84c0-1.92-.27-3.78-.73-5.56,15.53,24.09,34.42,46.55,55.25,65.36,36.8,33.24,78.48,54.11,120.54,60.36,5.33.79,10.66,1.19,15.99,1.19,24.9,0,49.64-8.63,73.08-25.4-2.62,2.9-5.22,5.66-7.76,8.23-28.97,29.2-65.65,40.75-112.17,35.3-44.43-5.2-111.51-40.72-148.29-96.29-4.76-7.19-9.29-14.33-13.61-21.46,10.11-2.06,17.72-11,17.72-21.72ZM1101,1236.36c13.24,2.09,26.87,3.24,40.78,3.24,16.26,0,32.9-1.54,49.7-4.92,29.33-5.88,54.1-16.26,74.46-27.96-9.14,7.85-20.86,16.83-34.83,25.21-32.1,19.27-82.77,39.14-143.46,26.07,4.68-7.32,9.12-14.54,13.35-21.64ZM1418.79,1078.91c4.35-4.93,8.93-10.78,13.39-17.65,15.83-24.39,32.94-66.6,24.59-129.18-9.5-71.16-42.22-126.1-97.6-164.28.36-1.58.56-3.21.56-4.9,0-12.25-9.93-22.17-22.17-22.17-4.31,0-8.32,1.25-11.72,3.37,1.98-3.3,3.94-6.63,5.89-10.01,4.11-7.12,8-14.24,11.69-21.36,24.58,14.27,49.4,33.83,74.01,61.51,54.07,60.83,76.61,131.69,63.46,199.53-8.45,43.6-31.49,82.01-62.1,105.14ZM1326.37,730.99c-2.66,4.6-5.35,9.11-8.06,13.57-1.46-.68-2.89-1.38-4.37-2.05,6.88-11.47,13.39-23.31,19.33-35.4,1.58.83,3.17,1.69,4.76,2.56-3.67,7.1-7.56,14.21-11.66,21.31ZM1308.21,740.06c-1.86-.79-3.72-1.58-5.61-2.35,6.4-11.82,12.35-24.14,17.81-36.91,2.45,1.13,4.89,2.3,7.35,3.52-5.99,12.22-12.58,24.17-19.55,35.75ZM1322.72,695.28c2.09-5.08,4.12-10.23,6.05-15.45,2.41-6.48,4.59-12.93,6.59-19.35,3.09,1.42,6.13,2.88,9.12,4.41-.98,2.71-1.98,5.43-3.03,8.15-3.35,8.73-7.08,17.36-11.11,25.88-2.55-1.26-5.09-2.48-7.63-3.65ZM1346.56,659.01c-3.08-1.55-6.2-3.05-9.37-4.49,4.21-14.31,7.39-28.41,9.59-42.21,3.74,2.04,7.54,4.18,11.39,6.4-3.02,13.18-6.89,26.64-11.6,40.31ZM1348.25,605.9c-.16-.09-.32-.17-.48-.26,7.89-57.87-2.14-109.99-29.78-148.95-36.51-51.47-101.19-77.85-187.13-76.19-10.56.2-20.75.86-30.61,1.93-.67-5.32-1.42-10.73-2.26-16.21,53.97-10.74,115.5-11.84,170.74,14.31,80.22,37.98,113.1,125.6,90.87,231.7-3.89-2.22-7.68-4.34-11.34-6.33ZM1094.09,383.16c-14.12,1.79-27.56,4.4-40.47,7.66-.53-4.28-1.1-8.56-1.74-12.82,12.62-3.91,26.04-7.52,40.01-10.52.82,5.3,1.55,10.53,2.19,15.68ZM1047.57,392.4c-12.47,3.38-24.45,7.34-36.04,11.73-.64-3.65-1.33-7.3-2.05-10.95,10.97-4.46,23.22-9.01,36.43-13.28.61,4.16,1.16,8.33,1.67,12.51ZM1008.15,386.74c-.87-4.12-1.8-8.24-2.79-12.35,11.6-5.66,23.81-10.97,36.82-15.79,1,4.92,1.9,9.86,2.71,14.82-13.27,4.24-25.59,8.79-36.74,13.31ZM1002.44,389.1c-12.32,5.17-23.05,10.22-31.86,14.64-.81-3.02-1.62-6.03-2.43-9.01,10.11-6.1,20.61-11.99,31.63-17.57.94,3.97,1.83,7.95,2.66,11.93ZM966.46,388.65c-18.7-66.61-42.69-122.44-122.55-178.63-44.06-31-93.64-41.76-143.38-31.12-26.24,5.61-52.13,17.12-74.61,32.81,40.29-39.21,86.43-59.9,133.97-59.96h.19c56.46,0,112.35,28.34,166.1,84.22,39.1,40.65,60.03,87.32,72.13,135.19-11.17,5.58-21.73,11.46-31.85,17.48ZM593.42,251.29c128.25-96.18,234.97-.75,274.92,44.78,29.45,33.56,45.92,74.98,57.6,118.61-5.81,3.95-11.52,7.89-17.16,11.78-3.6,2.48-7.19,4.96-10.77,7.42-16.3-48.77-36.49-94.01-66.54-128.12-36.96-41.97-84.45-68.19-133.73-73.86-39-4.48-77.29,4.3-107.85,24.26,1.17-1.63,2.35-3.25,3.53-4.87ZM541.01,320.54c-58.18-7.44-112.7,4.23-162.32,34.7,42.22-44.31,101.27-63.42,175.66-56.86-4.59,7.39-9.03,14.79-13.34,22.16ZM307.7,428.73c-.32.54-.63,1.09-.94,1.63-1.4.6-2.79,1.21-4.18,1.83.18-.23.36-.46.55-.69,1.52-.93,3.02-1.85,4.57-2.77ZM276.83,850.36c1.95,1.1,3.9,2.19,5.87,3.23-5.55,10.75-10.93,22.03-15.95,33.8-2.18-1.22-4.35-2.46-6.49-3.72,5.27-11.69,10.84-22.81,16.56-33.31ZM264.36,893.12c-4.82,11.73-9.27,23.91-13.2,36.49-2.42-1.44-4.84-2.89-7.26-4.38,4.22-12.47,8.89-24.43,13.87-35.88,2.18,1.27,4.38,2.54,6.6,3.77ZM269.82,896.11c2.63,1.41,5.28,2.8,7.94,4.16-4.28,12.24-8.09,24.97-11.23,38.13-3.28-1.81-6.58-3.68-9.89-5.59,3.91-12.65,8.36-24.91,13.18-36.71ZM519.19,1193.33c14.38-2.33,28.35-5.37,42-8.89.59,4.51,1.26,8.97,2.05,13.39-13.51,4.36-27.37,8.26-41.5,11.47-.99-5.27-1.84-10.59-2.55-15.97ZM567.23,1182.84c13.54-3.66,26.77-7.78,39.8-12.15.5,3.53,1.03,7.05,1.59,10.56-12.73,5.15-25.9,10.11-39.44,14.64-.75-4.3-1.39-8.66-1.95-13.05ZM613,1168.67c9.12-3.12,18.16-6.35,27.12-9.61.56,2.67,1.15,5.34,1.77,8.01-8.85,3.94-17.99,7.9-27.37,11.77-.53-3.38-1.04-6.77-1.52-10.17ZM643.36,1173.19c.69,2.8,1.4,5.61,2.15,8.4-2.51,1.38-5.06,2.76-7.67,4.17-6.14,3.3-12.95,6.74-20.32,10.23-.7-3.61-1.36-7.24-1.98-10.87,9.55-3.93,18.83-7.93,27.82-11.93ZM649.26,1170.55c9.72-4.37,19.09-8.7,28.04-12.84.55,1.69,1.11,3.38,1.67,5.07-1.16.66-2.32,1.32-3.49,1.99-7.79,4.43-15.77,8.97-24.25,13.67-.68-2.62-1.34-5.25-1.97-7.89ZM678.55,1170.14c.83-.47,1.65-.94,2.47-1.41,7.83,22.4,17.18,44.17,28.21,65.65-1.36,2.87-2.14,6.07-2.14,9.45,0,11.37,8.57,20.73,19.6,22.01,4.9,8.21,10.05,16.4,15.47,24.6,37.82,57.13,106.92,93.66,152.74,99.02,7.72.9,15.17,1.36,22.38,1.36,27.23,0,50.91-6.5,71.54-19.57-33.88,32.17-69.6,47.93-128.58,38.45-81.11-13.05-156.31-96.22-188.68-171.63-7.39-17.22-13.62-35.2-18.67-53.48,9.01-4.98,17.44-9.78,25.65-14.45ZM1084.08,1263.55c14.86,3.38,29.16,4.87,42.75,4.87,44.72,0,81.96-15.83,107.65-31.29,15.87-9.54,28.8-19.7,38.45-28.23-2.32,3.42-4.69,6.78-7.11,10.07-10,9.71-28.91,26.5-54,41.62-33.96,20.46-86.38,41.86-145.14,29.5,5.76-8.64,11.55-17.5,17.4-26.54ZM1340.74,704.35c-1.63-.89-3.25-1.76-4.88-2.61,4.12-8.71,7.94-17.54,11.37-26.47.96-2.49,1.88-4.98,2.78-7.47,1.95,1.05,3.92,2.13,5.89,3.25-4.52,11.06-9.58,22.18-15.17,33.3ZM1352.12,661.9c4.67-13.46,8.56-26.79,11.64-39.94,2.51,1.48,5.03,3,7.57,4.56-3.63,12.8-8,25.72-13.11,38.73-2.05-1.15-4.09-2.27-6.11-3.35ZM1087.84,344.76c1.13,5.56,2.13,11.03,3.04,16.44-14.02,2.96-27.41,6.51-40.02,10.36-.83-5.05-1.76-10.09-2.8-15.1,12.47-4.39,25.69-8.32,39.77-11.7ZM774.66,134.92c11.14,0,20.34-8.23,21.91-18.93,2.03.09,4.05.21,6.09.39,113.56,10.07,204.75,130.21,230.62,208.23,3.05,9.21,5.55,18.6,7.65,28.09-13.09,4.83-25.41,10.11-37.06,15.74-.37-1.44-.72-2.88-1.11-4.32-14.4-53.63-37.99-96.96-72.13-132.44-54.97-57.15-112.35-86.12-170.56-86.12h-.2c-35.74.04-70.66,11.29-102.99,32.92,29.97-27.84,62.53-48.87,97.06-57.85,3.18,8.35,11.24,14.29,20.7,14.29ZM574.55,267.32c-5.68,8.32-11.2,16.73-16.53,25.17-41.97-4.07-79.82-.08-112.53,11.9-12.33,4.51-23.95,10.18-34.83,16.93,46.87-35.53,103.85-59.77,163.89-54ZM299.58,425.78c-.33.41-.65.82-.98,1.23-.33.2-.66.4-.99.61.65-.61,1.3-1.22,1.97-1.84ZM171.03,525.21c-15.21,16.73-27.18,35.09-35.55,54.66-.8-4.79-3.12-9.05-6.47-12.27,12.22-16.04,26.48-30.19,42.03-42.39ZM173.68,872.1c-76.76-72.67-103.31-184.92-66.87-267.45,2.15.7,4.45,1.08,6.83,1.08,5.51,0,10.54-2.02,14.42-5.35-26.13,85.88,3.33,179.52,80.32,252.9,12.58,11.99,27.63,22.94,44.01,32.88-4.94,11.34-9.62,23.25-13.89,35.71-22.39-14.16-44.68-30.69-64.83-49.76ZM435.56,1244.98c-1.87-10.35-10.91-18.2-21.8-18.2s-19.06,7.13-21.48,16.75c-14.27-1.71-28.11-4.73-41.24-9.34-104.97-36.87-148.65-132.93-119.83-263.57,3-13.6,6.61-26.73,10.69-39.38,2.47,1.51,4.94,2.99,7.4,4.45-2.01,6.8-3.88,13.69-5.55,20.7-16.97,71-7.7,137.33,26.11,186.8,29.79,43.59,76.44,70.89,134.92,78.97,13.16,1.82,26.26,2.65,39.25,2.65,24.81,0,49.22-3.04,72.89-8.06.41,1.89.83,3.77,1.28,5.65.73,3.04,1.5,6.04,2.28,9.02-27.5,7.21-56.48,12.33-84.92,13.56ZM526.45,1229.8c-.77-2.93-1.52-5.87-2.24-8.86-.44-1.84-.86-3.69-1.25-5.54,14.12-3.21,27.96-7.09,41.46-11.42.52,2.54,1.07,5.07,1.67,7.59.42,1.74.88,3.47,1.32,5.21-13.03,4.7-26.77,9.12-40.96,13.03ZM573.26,1214.63c-.38-1.51-.78-3.01-1.15-4.52-.64-2.67-1.22-5.36-1.77-8.07,13.5-4.5,26.63-9.43,39.33-14.54.65,3.74,1.33,7.47,2.07,11.18-11.69,5.37-24.64,10.79-38.48,15.94ZM851.11,1442.01c-82.97-11.41-160.61-73.69-207.68-166.6-11.7-23.1-19.33-47.77-24.65-73.18,8-3.76,15.38-7.47,21.99-11.02,2.19-1.18,4.32-2.34,6.44-3.49,5.07,17.93,11.3,35.63,18.66,52.79,16.89,39.35,44.83,79.68,76.65,110.65,36.94,35.95,77.3,58.3,116.74,64.65,11.49,1.85,22.33,2.78,32.62,2.78,26.54,0,49.45-6.21,70.51-18.89,15.27-9.2,28.98-21.39,42.34-35.56-45.59,53.94-93.18,86.17-153.61,77.87ZM1044.79,1322.03c6.04-8.53,12.1-17.34,18.19-26.42,13.32,3,26.32,4.33,38.88,4.33,45.7,0,85.53-17.38,113.31-34.15,10.08-6.08,19.17-12.43,27.13-18.5-4.51,4.81-9.12,9.42-13.84,13.82-10.53,9.51-23.11,19.38-39.31,30.14l.15.22c-45.4,28.73-96.14,40.2-144.51,30.54ZM1473.15,1041.78c6.46-7.45,11.53-14.18,15.41-19.78.49.76,1.02,1.49,1.59,2.18-4.87,5.23-10.68,11.3-17,17.6ZM1518.6,991c-3.1-1.88-6.7-3.01-10.55-3.16,8.28-25.83,19.09-77.32,2.1-139.45-22.67-82.89-87.89-145.57-146.5-180.02,5.1-12.91,9.49-25.75,13.15-38.46,40.04,25.13,83.22,59.31,116.68,103.7,73.46,97.48,54.03,210.21,25.12,257.39Z"/>
</svg>